<?xml version="1.0" encoding="UTF-8"?>
<svg id="Capa_2" data-name="Capa 2" xmlns="http://www.w3.org/2000/svg" viewBox="0 0 981.96 277.28">
  <defs>
    <style>
      .cls-1 {
        fill: none;
      }

      .cls-1, .cls-2 {
        stroke-width: 0px;
      }

      .cls-2 {
        fill: #0e0e0f;
      }
    </style>
  </defs>
  <g id="adornos">
    <g>
      <rect class="cls-1" width="981.96" height="277.28"/>
      <g id="frame-4">
        <path class="cls-2" d="m253.31,243.33c-.88,0-1.76-.04-2.64-.13-11.31-1.15-20.55-9.51-22.84-20.64l-12.17-59.29-18.12,57.42c-3.41,10.82-13.45,18.18-24.79,18.18h-.02c-11.35,0-21.39-7.38-24.79-18.21l-18.99-60.43-13.32,55.9c-2.59,10.87-11.83,18.87-22.96,19.87-11.12,1-21.65-5.21-26.14-15.44L2.2,73.97c-5.77-13.15.21-28.49,13.36-34.26,13.15-5.77,28.49.21,34.26,13.36l33.2,75.63,17.21-72.21c2.71-11.38,12.69-19.54,24.38-19.96,11.69-.44,22.21,7.03,25.72,18.19l22.49,71.56,23.4-74.16c3.56-11.29,14.34-18.72,26.14-18.14,11.83.61,21.75,9.14,24.13,20.74l15.63,76.13,30.88-72.01c5.66-13.2,20.94-19.31,34.14-13.65,13.2,5.66,19.31,20.95,13.65,34.14l-63.57,148.24c-4.13,9.63-13.58,15.75-23.88,15.75Z"/>
      </g>
    </g>
  </g>
</svg>