<?xml version="1.0" encoding="UTF-8"?>
<svg id="Capa_2" data-name="Capa 2" xmlns="http://www.w3.org/2000/svg" viewBox="0 0 981.96 277.28">
  <defs>
    <style>
      .cls-1 {
        fill: none;
      }

      .cls-1, .cls-2 {
        stroke-width: 0px;
      }

      .cls-2 {
        fill: #131313;
      }
    </style>
  </defs>
  <g id="adornos">
    <g>
      <rect class="cls-1" x="0" width="981.96" height="277.28"/>
      <g id="frame-2">
        <path class="cls-2" d="m591.28,243.7c-7.76,0-15.14-3.47-20.09-9.5l-105.72-128.75-87.79,121.71c-4.77,6.61-12.36,10.6-20.5,10.78-8.15.23-15.91-3.46-20.97-9.85l-97.97-123.68-76.05,119.97c-4.54,7.16-12.28,11.66-20.75,12.05-8.49.4-16.6-3.37-21.78-10.08L5.43,78.51c-8.78-11.36-6.68-27.69,4.68-36.47,11.36-8.78,27.69-6.68,36.47,4.68l91.54,118.5,75.8-119.57c4.51-7.11,12.18-11.6,20.6-12.04,8.42-.45,16.51,3.22,21.74,9.82l99.36,125.43,87.43-121.2c4.72-6.54,12.21-10.52,20.27-10.78,8.04-.26,15.79,3.25,20.91,9.49l104.87,127.71,80.12-120.31c7.96-11.95,24.1-15.19,36.05-7.23,11.95,7.96,15.19,24.1,7.23,36.05l-99.57,149.53c-4.57,6.86-12.11,11.14-20.34,11.56-.43.02-.87.03-1.3.03Z"/>
      </g>
    </g>
  </g>
</svg>