<?xml version="1.0" encoding="UTF-8"?>
<svg id="Capa_2" data-name="Capa 2" xmlns="http://www.w3.org/2000/svg" viewBox="0 0 981.96 277.28">
  <defs>
    <style>
      .cls-1 {
        fill: none;
      }

      .cls-1, .cls-2 {
        stroke-width: 0px;
      }

      .cls-2 {
        fill: #131313;
      }
    </style>
  </defs>
  <g id="adornos">
    <g>
      <rect class="cls-1" x="0" width="981.96" height="277.28"/>
      <g id="frame-1">
        <path class="cls-2" d="m770.14,242.83c-6.65,0-13.31-2.54-18.38-7.62l-135.17-135.17-130.7,130.7c-4.88,4.88-11.49,7.62-18.38,7.62s-13.51-2.74-18.38-7.62l-130.47-130.47-127.7,127.7c-10.15,10.15-26.62,10.15-36.77,0L7.61,81.41c-10.15-10.15-10.15-26.62,0-36.77s26.62-10.15,36.77,0l128.18,128.18,127.7-127.7c4.88-4.88,11.49-7.62,18.38-7.62h0c6.9,0,13.51,2.74,18.38,7.62l130.47,130.47,130.7-130.7c10.15-10.15,26.62-10.15,36.77,0l135.17,135.17,137.99-137.99c10.15-10.15,26.62-10.15,36.77,0s10.15,26.62,0,36.77l-156.37,156.37c-5.08,5.08-11.73,7.62-18.38,7.62Z"/>
      </g>
    </g>
  </g>
</svg>