<?xml version="1.0" encoding="UTF-8"?>
<svg id="Capa_2" data-name="Capa 2" xmlns="http://www.w3.org/2000/svg" viewBox="0 0 981.96 277.28">
  <defs>
    <style>
      .cls-1 {
        fill: none;
      }

      .cls-1, .cls-2 {
        stroke-width: 0px;
      }

      .cls-2 {
        fill: #0e0e0f;
      }
    </style>
  </defs>
  <g id="adornos">
    <g>
      <rect class="cls-1" x="0" width="981.96" height="277.28"/>
      <g id="frame-3">
        <path class="cls-2" d="m402.09,241.54c-9.13,0-17.65-4.8-22.35-12.73l-65.1-109.67-44.03,102.22c-4.1,9.53-13.48,15.7-23.85,15.71h-.03c-10.36,0-19.74-6.16-23.86-15.67l-44.87-103.59-65.65,104.34c-5.13,8.14-14.32,12.8-23.93,12.08-9.6-.71-18.02-6.67-21.88-15.48L2.2,72.19c-5.77-13.15.21-28.49,13.36-34.26,13.15-5.77,28.49.21,34.26,13.36l44.63,101.68,65.81-104.59c5.14-8.16,14.37-12.83,23.99-12.08,9.62.74,18.04,6.74,21.87,15.59l40.54,93.61,40.4-93.8c3.87-8.98,12.45-15.03,22.2-15.66,9.77-.62,19.04,4.27,24.03,12.67l65.05,109.58,43.42-101.25c5.66-13.2,20.94-19.31,34.14-13.65,13.2,5.66,19.31,20.95,13.65,34.14l-63.57,148.24c-3.86,8.99-12.43,15.06-22.2,15.7-.57.04-1.14.06-1.7.06Z"/>
      </g>
    </g>
  </g>
</svg>