<?xml version="1.0" encoding="UTF-8"?>
<svg id="Capa_2" data-name="Capa 2" xmlns="http://www.w3.org/2000/svg" viewBox="0 0 546.96 66.3">
  <defs>
    <style>
      .cls-1 {
        stroke-width: 3px;
      }

      .cls-1, .cls-2 {
        fill: none;
        stroke: #a7fe2f;
        stroke-linejoin: round;
      }

      .cls-2 {
        stroke-width: 2.4px;
      }
    </style>
  </defs>
  <g id="adornos">
    <g id="moons">
      <path class="cls-2" d="m465.74,58.4c-.24,0-.48.02-.72.02-13.96,0-25.27-11.31-25.27-25.27s11.31-25.27,25.27-25.27c.24,0,.48.01.72.02-5.3-4.01-11.91-6.39-19.07-6.39-17.48,0-31.65,14.17-31.65,31.65s14.17,31.65,31.65,31.65c7.16,0,13.77-2.38,19.07-6.39Z"/>
      <path class="cls-1" d="m386.52,56.61c-9.31-3.73-15.89-12.82-15.89-23.47s6.58-19.74,15.89-23.47c-5.62-5.08-13.06-8.18-21.23-8.18-17.48,0-31.65,14.17-31.65,31.65s14.17,31.65,31.65,31.65c8.17,0,15.62-3.1,21.23-8.18Z"/>
      <circle id="moon" class="cls-1" cx="273.48" cy="33.15" r="31.65"/>
      <path class="cls-1" d="m545.46,58.01c-3.11,1.26-6.51,1.96-10.07,1.96-14.81,0-26.82-12.01-26.82-26.82s12.01-26.82,26.82-26.82c3.56,0,6.96.7,10.07,1.96-5.39-4.25-12.18-6.79-19.57-6.79-17.48,0-31.65,14.17-31.65,31.65s14.17,31.65,31.65,31.65c7.39,0,14.18-2.54,19.57-6.79Z"/>
      <path class="cls-2" d="m81.22,7.89c.24,0,.48-.02.72-.02,13.96,0,25.27,11.31,25.27,25.27s-11.31,25.27-25.27,25.27c-.24,0-.48-.01-.72-.02,5.3,4.01,11.91,6.39,19.07,6.39,17.48,0,31.65-14.17,31.65-31.65S117.77,1.5,100.29,1.5c-7.16,0-13.77,2.38-19.07,6.39Z"/>
      <path class="cls-1" d="m160.45,9.68c9.31,3.73,15.89,12.82,15.89,23.47s-6.58,19.74-15.89,23.47c5.62,5.08,13.06,8.18,21.23,8.18,17.48,0,31.65-14.17,31.65-31.65S199.16,1.5,181.68,1.5c-8.17,0-15.62,3.1-21.23,8.18Z"/>
      <path class="cls-1" d="m1.5,8.29c3.11-1.26,6.51-1.96,10.07-1.96,14.81,0,26.82,12.01,26.82,26.82s-12.01,26.82-26.82,26.82c-3.56,0-6.96-.7-10.07-1.96,5.39,4.25,12.18,6.79,19.57,6.79,17.48,0,31.65-14.17,31.65-31.65S38.55,1.5,21.07,1.5C13.68,1.5,6.89,4.04,1.5,8.29Z"/>
    </g>
  </g>
</svg>