<?xml version="1.0" encoding="UTF-8"?>
<svg id="Capa_2" data-name="Capa 2" xmlns="http://www.w3.org/2000/svg" viewBox="0 0 138 137.49">
  <defs>
    <style>
      .cls-1 {
        stroke-width: 0px;
      }
    </style>
  </defs>
  <g id="adornos">
    <g id="blob">
      <path class="cls-1" d="m137.82,70.39c-1.14,10.13-5.7,9.71-10.26,23.51-5.72,17.29-.91,23.36-6.98,28.98-6.71,6.22-13.38-.48-29.74,5.35-11.94,4.26-13.04,9.97-20.95,9.18-7.84-.78-13.82-7.85-20.96-10.63-7.38-2.98-17.46-1.35-23.52-7.05-6.08-5.71-10.17-13.68-14.2-21.84-3.88-7.78-9.98-18.34-11.09-26.64-1.1-8.12,4.98-13.16,7.57-20.07,2.66-7.05,3.89-16.08,9.95-22.52,6.09-6.46,17.29-7.52,26.04-12.14C52.12,12,59.54.73,69.59.04c10.04-.69,18.41,8.09,26.83,9.96,8.74,2.02,19.18.96,25.26,6.64,6.07,5.72,7.83,14.93,10.49,24.05,2.58,8.69,6.75,19.93,5.65,29.7Z"/>
    </g>
  </g>
</svg>