<?xml version="1.0" encoding="UTF-8"?>
<svg id="Capa_2" data-name="Capa 2" xmlns="http://www.w3.org/2000/svg" viewBox="0 0 106.79 78.08">
  <defs>
    <style>
      .cls-1 {
        stroke-width: 0px;
      }
    </style>
  </defs>
  <g id="logo__black">
    <g>
      <path class="cls-1" d="m47.4,37.99c-.31-.64-.87-1.19-1.56-1.54-.08-.04-.15-.07-.23-.11-.59-.26-.89-.92-.7-1.53.15-.46.28-.94.39-1.41,1.18-5.16,0-10.54-3.35-15.13-3.31-4.55-8.34-7.79-14.17-9.12-2.73-.63-5.49-.8-8.21-.52-4.38.45-8.4,2.04-11.63,4.6-.37.29-.73.6-1.08.92-.2.18-.45.3-.72.32-.37.04-.74-.09-1.01-.35-.26-.26-.57-.48-.92-.66-.63-.32-1.3-.46-1.96-.39-.89.09-1.64.57-2.01,1.29-.67,1.3.03,2.95,1.59,3.75.06.03.12.06.18.09.3.14.55.39.66.71.12.31.1.67-.04.97-.51,1.11-.91,2.28-1.19,3.47-1.18,5.16,0,10.54,3.35,15.13,3.31,4.55,8.34,7.79,14.17,9.12,2.73.63,5.49.8,8.21.52h0c4.38-.45,8.4-2.04,11.63-4.6.94-.75,1.8-1.57,2.57-2.45.21-.24.5-.39.82-.42.29-.03.59.05.83.21.13.09.28.18.42.25.63.32,1.3.46,1.96.39.89-.09,1.64-.57,2.01-1.29.34-.67.33-1.47-.03-2.21Zm-4.3-4.97c-2.17,9.44-12.72,15.08-23.57,12.59-10.85-2.49-17.89-12.16-15.72-21.6,2.17-9.44,12.72-15.08,23.57-12.59,10.85,2.49,17.89,12.16,15.72,21.6Z"/>
      <path class="cls-1" d="m69.96,11.96c-1.69-3-4.1-5.45-6.97-7.08-2.82-1.61-5.9-2.32-8.89-2.07-1.51.13-2.96.51-4.31,1.12-.15.07-.31.11-.48.13-.46.04-.92-.14-1.22-.49-.71-.8-1.69-1.23-2.62-1.15-.47.04-.91.22-1.27.51-.58.47-.9,1.21-.86,2.03.03.71.31,1.43.8,2.04.45.55,1.03.96,1.65,1.15.12.04.24.09.35.16.01,0,.03.02.04.03,3.86,2.25,7.43,6.03,10.03,10.65,2.83,5.01,4.25,10.58,3.89,15.28,0,.06,0,.13,0,.19,0,.06,0,.13,0,.2-.01.29.01.59.07.89.32,1.58,1.58,2.69,2.93,2.57.09,0,.17-.02.26-.04,1.29-.26,2.13-1.57,2.01-3.11-.04-.54.21-1.06.67-1.35,3.12-1.99,5.28-5.25,6.06-9.17.83-4.13.06-8.57-2.15-12.49Zm-4.95,19.57c-.39.22-.79.42-1.2.58-.96.39-2.03-.3-2.06-1.34-.1-3.84-1.31-8.18-3.67-12.35-2.12-3.76-4.86-6.8-7.75-8.88-.84-.61-.81-1.88.06-2.45.2-.13.4-.25.61-.37,5.9-3.33,13.82-.48,17.69,6.37,3.87,6.85,2.22,15.1-3.68,18.44Z"/>
      <path class="cls-1" d="m93.36,7.95c-1.56-2.19-3.65-3.68-6.06-4.33-.52-.14-.88-.6-.9-1.13-.02-.75-.3-1.44-.76-1.9-.38-.38-.86-.59-1.37-.59-1.19.01-2.13,1.17-2.14,2.63,0,.59.15,1.16.44,1.61.06.09.1.19.13.29,0,.02,0,.03.01.04,1.26,3.53,1.54,7.92.8,12.35-.81,4.82-2.8,9.26-5.45,12.18-.04.04-.07.08-.1.13-.03.05-.06.09-.1.13-.16.18-.29.39-.41.62-.65,1.3-.35,2.75.7,3.31.26.14.56.22.87.22.75,0,1.53-.47,2.03-1.21.25-.37.68-.58,1.13-.53,3.25.34,6.54-.92,9.13-3.47,2.29-2.26,3.87-5.38,4.44-8.78.71-4.21-.17-8.42-2.41-11.56Zm.9,11.58c-1.06,6.27-6.1,10.66-11.27,9.8-.16-.03-.31-.06-.47-.09-1.04-.24-1.51-1.45-.89-2.32,1.72-2.45,3.05-5.68,3.66-9.34.55-3.3.45-6.45-.17-9.14-.24-1.03.63-1.98,1.67-1.81,0,0,.02,0,.02,0,5.17.86,8.5,6.64,7.44,12.91Z"/>
      <path class="cls-1" d="m18.76,16.27c-1.44.2-2.61,7.37-.02,13.99,2.51,6.41,8.17,11.35,9.42,10.76.78-.36-.7-4.31-3.69-12.2-3.2-8.45-4.82-12.67-5.71-12.55Z"/>
      <path class="cls-1" d="m57.7,9.84c.63-.63,6.35,2.11,8.34,7.35,1.96,5.19-.44,10.97-1.34,10.92-.75-.04-.11-4.1-2.41-9.92-2.16-5.47-5.08-7.85-4.58-8.35Z"/>
      <path class="cls-1" d="m88.63,10.83c.71-.14,3.32,4.24,2.29,8.61-1.02,4.33-5.24,7.11-5.82,6.67-.49-.36,1.77-2.78,2.85-7.68,1.01-4.61.12-7.49.68-7.6Z"/>
      <g>
        <path class="cls-1" d="m48.57,78.08c-.05,0-.1,0-.16-.01l-5.03-.68c-.63-.09-1.08-.67-.99-1.3.09-.63.67-1.08,1.3-.99l3.87.52.47-3.8c.04-.31.2-.59.44-.77.24-.19.55-.27.86-.23l3.99.52.21-3.98c.02-.31.15-.6.39-.8.23-.21.53-.31.84-.29l4.2.26-.41-3.66c-.03-.31.05-.61.25-.85s.47-.39.78-.43l4.3-.48c-1.89-2.28-4.01-4.36-6.32-6.2-3.47-2.76-7.34-4.96-11.51-6.54l-1.1,4.21c-.08.32-.3.59-.6.74-.3.15-.65.16-.95.04l-3.68-1.49-.65,4.13c-.05.32-.24.61-.51.79-.28.18-.61.23-.93.15l-4.11-1.1v3.99c0,.37-.17.71-.47.93-.29.22-.67.29-1.02.18l-5-1.49c-.61-.18-.96-.83-.78-1.44.18-.61.83-.96,1.44-.78l3.51,1.04v-3.94c0-.36.17-.7.45-.92.29-.22.66-.29,1.01-.2l4.33,1.16.68-4.3c.06-.35.27-.65.57-.83.31-.17.68-.2,1.01-.07l3.81,1.54,1.09-4.16c.08-.31.29-.58.58-.73.28-.15.62-.18.93-.07,4.87,1.69,9.37,4.16,13.37,7.35,3,2.39,5.69,5.16,8,8.24.25.33.3.77.14,1.16s-.52.65-.94.69l-5.22.58.43,3.88c.04.34-.08.68-.31.93-.24.25-.57.38-.91.36l-4.4-.27-.21,4.06c-.02.32-.17.62-.42.83-.25.21-.57.3-.89.26l-4.07-.53-.47,3.8c-.04.31-.2.59-.44.78-.2.16-.45.24-.71.24Z"/>
        <path class="cls-1" d="m48.72,63.54c-.06,0-.13,0-.19-.02l-4.93-.82c-.63-.1-1.06-.7-.95-1.33s.7-1.06,1.33-.95l3.65.6.15-2.52c.04-.61.54-1.09,1.16-1.09h.01l3.46.03v-1.73c0-.64.51-1.16,1.15-1.16h0c.64,0,1.16.52,1.16,1.16v2.91c0,.31-.11.61-.33.83s-.52.33-.83.34l-3.53-.03-.16,2.71c-.02.33-.18.63-.43.84-.21.17-.46.25-.72.25Z"/>
      </g>
      <g>
        <path class="cls-1" d="m99.31,64.33c-.32,0-.64-.13-.87-.39l-2.54-2.87-3.06,2.74c-.24.22-.56.32-.88.29-.32-.03-.62-.19-.81-.45l-2.47-3.23-3.48,2.71c-.27.21-.62.29-.95.22-.33-.07-.62-.29-.78-.59l-1.92-3.59-4.18,1.44c-.34.12-.72.07-1.02-.13-.3-.2-.49-.53-.52-.88-.39-5.38.3-10.62,2.06-15.56.83-2.35,1.91-4.63,3.21-6.78.18-.3.48-.5.83-.55.34-.05.69.06.95.29l3.87,3.53,2.51-3.65c.18-.26.45-.43.76-.49.31-.05.62.02.88.2l3.92,2.82,2.32-3.18c.19-.26.49-.44.82-.47.33-.03.65.07.9.29l3.68,3.31,2.37-1.99c.49-.41,1.22-.35,1.63.14.41.49.35,1.22-.14,1.63l-3.14,2.63c-.44.37-1.09.36-1.52-.03l-3.48-3.12-2.24,3.07c-.38.51-1.1.63-1.61.26l-3.89-2.8-2.59,3.77c-.19.28-.49.46-.82.5-.33.04-.67-.07-.91-.29l-3.79-3.45c-.9,1.65-1.68,3.37-2.3,5.13-1.48,4.18-2.16,8.58-2.01,13.1l3.66-1.26c.54-.19,1.13.05,1.4.55l1.74,3.25,3.32-2.58c.24-.19.55-.27.86-.23.31.04.58.2.77.45l2.42,3.17,3-2.68c.23-.21.53-.31.84-.29.31.02.6.16.8.39l2.63,2.97,3.28-2.27c.53-.36,1.25-.23,1.61.29.36.53.23,1.25-.29,1.61l-4.13,2.86c-.2.14-.43.21-.66.21Z"/>
        <path class="cls-1" d="m90.96,52.71s-.06,0-.09,0c-.33-.02-.63-.19-.83-.45l-1.66-2.14-2.89,2.02c-.25.18-.57.25-.87.19-.3-.06-.57-.23-.75-.49l-1.64-2.4c-.36-.53-.22-1.25.31-1.61.53-.36,1.25-.22,1.61.31l.98,1.43,2.84-1.98c.51-.35,1.2-.25,1.58.24l1.55,2,2.67-2.56c.46-.44,1.2-.43,1.64.03.44.46.43,1.2-.03,1.64l-3.6,3.46c-.22.21-.5.32-.8.32Z"/>
      </g>
      <path class="cls-1" d="m71.95,61.33c-.55,0-1.04-.4-1.14-.96-.28-1.58-.64-3.16-1.07-4.71-.3-1.08-.65-2.16-1.03-3.21-2.97-1.11-5.86-2.48-8.59-4.06-2.67-1.55-5.23-3.33-7.61-5.3-.49-.41-.56-1.14-.16-1.63.41-.49,1.14-.56,1.63-.16,2.28,1.88,4.74,3.59,7.3,5.08,2.49,1.44,5.1,2.69,7.79,3.73.9-1.75,1.64-3.59,2.21-5.47.58-1.93.99-3.92,1.2-5.93.07-.64.64-1.1,1.28-1.03.64.07,1.1.64,1.03,1.28-.23,2.15-.66,4.28-1.29,6.35-.66,2.19-1.54,4.32-2.62,6.33.4,1.12.77,2.25,1.09,3.39.46,1.62.83,3.28,1.12,4.94.11.63-.31,1.23-.94,1.34-.07.01-.13.02-.2.02Z"/>
    </g>
  </g>
</svg>