<?xml version="1.0" encoding="UTF-8"?>
<svg id="Capa_2" data-name="Capa 2" xmlns="http://www.w3.org/2000/svg" viewBox="0 0 386.26 291.71">
  <defs>
    <style>
      .cls-1 {
        stroke-width: 0px;
      }
    </style>
  </defs>
  <g id="adornos">
    <g id="oni__logo">
      <path class="cls-1" d="m26.42,182.79c-.15-2.57-.34-4.35-.35-6.12-.02-38.85-.04-77.69-.02-116.54,0-6.71.05-6.75,6.74-6.76,18.1-.03,36.2-.18,54.29.08,5.45.08,8.3-1.87,9.4-7.17.99-4.75,2.46-9.4,3.9-14.74,14.68.69,29.15,1.37,44.34,2.08-2.14,6.81-4.06,12.93-6.47,20.59,37.46-1.04,73.93-2.05,111.08-3.08-1.7,10.75-3.55,22.42-5.51,34.8,12.9-2.65,25.01-5.02,37.03-7.75,1.45-.33,3.12-2.48,3.55-4.08,1.86-6.86,3.44-13.8,4.8-20.77.67-3.44,1.77-5.74,5.48-7.1,15.64-5.74,31.07-12.05,46.73-17.73,4.44-1.61,5.87-3.72,5.4-8.37-.87-8.74-.6-8.74,7.65-11.32,8.73-2.72,17.43-5.54,26.18-8.19,1.67-.51,3.52-.43,5.28-.62.1.47.21.94.31,1.41-8.21,4.29-16.35,8.75-24.67,12.81-3.61,1.76-5.05,3.51-4.23,7.91,2.48,13.34,2.21,13.35-10.54,19.02-11.69,5.2-23.28,10.67-35.05,15.68-3.71,1.58-5.16,3.52-5.23,7.65-.2,12.6-.89,25.19-1.43,37.79-.11,2.59-.43,5.17-.71,8.4-16.72,1.18-33.11,2.56-49.53,3.42-8.74.46-16.71,2.48-24.19,7.17-3.61,2.26-4.72,4.64-3.02,9.05,4.56-2.46,8.84-5.17,13.44-7.12,2.8-1.19,6.17-1.96,9.15-1.64,8.27.9,16.53,2.16,24.67,3.88,4.96,1.05,9.17-.1,13.5-2.06,20.53-9.31,41.09-18.57,61.64-27.84,1.43-.65,2.88-1.26,4.9-.98-3.75,2.81-7.48,5.65-11.25,8.44-20.6,15.23-41.25,30.39-61.78,45.71-3.33,2.48-6.6,3.37-10.73,2.85-7.66-.97-15.38-1.77-23.08-1.94-2.9-.06-6.03,1.48-8.72,2.93-10.36,5.57-14.96,14.11-12.71,25.97.21,1.11-.28,2.35-.5,3.95h-70.35c0,5.05-.03,9.66,0,14.27.11,15.05.2,30.09.39,45.14.09,7.44,1.48,8.98,8.95,9.09,12.6.17,25.2.12,37.8-.03,5.7-.07,8.42-2.49,9.71-8.17.79-3.5,1.31-7.07,2.05-11.16,13.15,3.3,25.86,6.49,40,10.04-3.06,10.67-5.09,21.07-9.06,30.66-4.04,9.76-12.95,14.74-23.32,15.23-18.87.89-37.79,1.05-56.69,1.31-7.92.11-15.87-.06-23.78-.48-17.21-.92-25.35-9.42-25.52-26.89-.22-23.18-.14-46.37-.22-69.55,0-2.59-.24-5.18-.38-7.98h-8.21c-.28,1.47-.71,2.97-.85,4.5-3.66,41.83-24.31,72.9-59.9,94.43-5.2,3.15-10.65,5.94-16.17,8.49-1.38.64-4.34.4-5.12-.59-8.56-10.81-16.83-21.85-25.52-33.27,23.1-8.47,43.84-19.23,56.49-40.92,5.93-10.17,8.98-21.21,9.85-33.78H26.42Zm40.25-32.76h38.71v-16.23h-38.71v16.23Zm118.71-16.12h-37.3v15.98h37.3v-15.98Zm-118.72-32.54h38.7v-14.75h-38.7v14.75Zm81.14-.22h37.43v-14.06h-37.43v14.06Z"/>
      <path class="cls-1" d="m228.15,221.88c-20.33,7.45-40.35,12.04-61.63,13.4-1.27-6.8-2.52-13.12-3.57-19.47-.16-1,.3-2.52,1.04-3.17,5.12-4.54,6.07-10.82,7.48-16.96,1.85-8.04,1.9-8.04,9.98-8.06,4.63,0,9.25,0,14.78,0-2.24,7.49-4.23,14.17-6.52,21.83,3.01-.52,5.05-.87,7.59-1.31-.79-2.83-1.42-5.1-2.24-8.06,6.15-2.53,12.24-5.03,19.02-7.81,4.7,9.89,9.19,19.33,14.08,29.6Z"/>
    </g>
  </g>
</svg>