<?xml version="1.0" encoding="UTF-8"?>
<svg id="Capa_2" data-name="Capa 2" xmlns="http://www.w3.org/2000/svg" viewBox="0 0 512.4 240.64">
  <defs>
    <style>
      .cls-1, .cls-2, .cls-3 {
        stroke-width: 0px;
      }

      .cls-2 {
        fill: #fff;
      }

      .cls-3 {
        fill: #a7fe2f;
      }
    </style>
  </defs>
  <g id="adornos">
    <g id="sv__logo">
      <path class="cls-2" d="m29.16,80.42c-6.29,11.88-4.87,18.59,5.63,22.74,16.7,6.59,33.88,6.72,50.42-.45,11.43-4.96,16.05-14.58,15.29-27.01-.76-12.38-5.69-19.76-17.85-23.89-6.11-2.07-12.66-2.87-19.01-4.24-4.11-.89-8.58-1.07-12.22-2.9-2.69-1.35-5.53-4.6-6.08-7.42-.78-4.07,2.46-6.96,6.46-8.31,1.81-.61,3.69-1.37,5.54-1.41,13.69-.29,27.29-.12,37.22,11.89,5.93-14.97,2.18-22.74-12.17-26.14-3.72-.88-7.54-1.59-11.35-1.86-12.35-.87-24.61-.64-35.97,5.21-9.67,4.98-13.28,13.75-13.02,23.8.24,9.69,4.17,17.97,14.11,21.68,4.62,1.72,9.48,2.87,14.28,4.06,7.05,1.75,14.26,2.95,21.2,5.05,4.3,1.3,7.13,4.81,6.68,9.6-.42,4.48-3.1,7.71-7.31,9.57-11.37,5.01-32.37.23-41.85-9.97Z"/>
      <path class="cls-2" d="m170.53,192.03c4.53-5.34,7.96-9.28,11.26-13.33,8.69-10.66,17.81-21.02,25.78-32.2,5.02-7.03,7.45-15.51,6.81-25.32-18.48,0-36.11-.21-53.73.1-7.56.13-9.48,2.88-11.06,13.89h41.18c-3.8,9.94-9.48,16.5-15.5,22.89-6.82,7.25-13.9,14.31-20.13,22.04-5.86,7.26-8.61,15.86-7.63,25.68,2.03.4,3.48.94,4.94.94,17.3.06,34.6.21,51.89-.01,10.04-.13,12.14-2.83,12.56-14.69h-46.37Z"/>
      <path class="cls-2" d="m326.56,157.24c-4.66-9.97-8.18-17.51-11.7-25.04-5.01-10.69-6.91-11.61-20.49-9.53v60.85q6.76,3.56,14.1,2.58v-34.4c7.76,9.42,6.99,24.09,22.72,24.35,3.95-7.83,7.87-15.58,11.78-23.33.63.23,1.26.46,1.9.7v30.68c4.78,1.41,9.25,2.72,14.46,4.25.42-3.71.89-5.92.89-8.14.03-14.91.08-29.83-.12-44.74-.16-12.18-3.64-14.71-17.07-12.67-4.99,10.45-10.09,21.1-16.47,34.44Z"/>
      <path class="cls-2" d="m109.76,39.74c0,17.56-.38,32.8.16,48.02.28,7.76,4.79,13.66,12.17,16.78,10.37,4.38,20.99,4.37,31.49.67,8.79-3.1,13.85-9.2,13.79-18.97-.07-12.25.13-24.49.07-36.74,0-1.81-.82-3.62-1.43-6.15-3.94-.94-7.79-1.86-12.7-3.03-.24,5.12-.54,8.84-.56,12.56-.05,10.33.29,20.67-.02,31-.27,8.89-5.34,13.51-13.8,13.45-8.69-.06-13.5-4.56-13.77-13.32-.2-6.5-.01-13.01,0-19.52,0-6.43,0-12.85,0-19.98-5.12-1.59-9.3-2.88-15.39-4.76Z"/>
      <path class="cls-2" d="m459.56,121.85c0,19.5.03,37.82-.02,56.14-.01,5.19,3.05,8.17,7.62,8.44,10.7.63,21.47,1.05,32.15.49,4.84-.25,7.93-4.02,6.19-11.15h-30.31v-17.9c6.14,0,11.48.19,16.79-.04,7.85-.34,8.38-.96,11.35-11.51h-29.08c.25-5.5.43-9.47.64-14.26,8.12,0,15.02.29,21.88-.08,7.13-.38,8.32-2.1,8.17-10.14h-45.4Z"/>
      <path class="cls-2" d="m365.43,87.67c-.9.16-1.81.32-2.71.48-1.5-3.78-3.13-7.52-4.49-11.36-3.05-8.64-5.72-17.42-9.02-25.97-3.59-9.29-7.76-10.95-18.61-7.57,5.75,15.31,11.14,30.72,17.35,45.79,3.32,8.07,8.58,15.11,16.69,19.93,20.58-17.71,22.49-43.66,32.75-65.95-11.78-3.01-15.21-1.58-18.88,8.08-4.59,12.1-8.74,24.37-13.09,36.56Z"/>
      <path class="cls-2" d="m233.83,43.15c5.47,15,10.56,30.12,16.54,44.88,3.42,8.45,8.9,15.8,17.31,20.97,20.52-17.65,22.58-43.55,32.65-65.87-10.53-2.95-14.26-1.71-17.82,5.87-1.94,4.13-3.15,8.59-4.73,12.89-3.22,8.77-6.46,17.53-10.45,28.35-2.02-4.14-3.17-6.03-3.9-8.08-3.75-10.41-7.13-20.96-11.14-31.27-3.66-9.4-7.66-10.98-18.44-7.74Z"/>
      <path class="cls-2" d="m308.9,18.36c-29.52-30.54-92.85-21.1-110.57,14.4,8.62,1.24,17.21,2.48,26.39,3.8,9.99-11.85,22.2-20.64,37.72-24.39,15.43-3.72,30.17-1.26,46.46,6.19Z"/>
      <path class="cls-2" d="m507.22,206.17c-1.66.73-3.38,1.36-4.98,2.2-24.77,13-51.04,5.13-66.72-10.91-3.68-3.77-7.72-7.19-11.23-10.44-7.05,3.18-13.78,6.22-20.54,9.27,21.67,32.37,76.77,43.1,103.46,9.88Z"/>
      <path class="cls-2" d="m467.76,41.25v61.38c2.01,1.19,3.59,2.89,5.25,2.98,11.07.56,22.17,1.25,33.22.88,4.69-.16,6.88-4.28,5.97-10.17-4.45,0-8.96,0-13.47,0-4.89,0-9.78,0-15.26,0-.3-4.62-.67-7.96-.69-11.29-.06-9.94.06-19.88.04-29.82-.03-11.9-1.29-13.12-15.06-13.95Z"/>
      <path class="cls-2" d="m323.45,106.74c0-18.3.1-35.8-.04-53.31-.08-10.29-2.35-12-15.07-11.68-.19,2.51-.54,5.09-.55,7.68-.01,14.9,0,29.8.12,44.7.1,11.22,1.49,12.42,15.53,12.62Z"/>
      <path class="cls-2" d="m434.29,120.72c-2.76,9.19-3.23,52.53-.71,64.27,3.57.87,7.67,1.86,12.51,3.04v-63.83c-4.18-1.23-8-2.36-11.81-3.48Z"/>
      <path class="cls-2" d="m68.08,204.05c-12.93-10.87-13.32-11.24-17.1-27.25-1.32-5.6-4.44-7.39-10.96-6.59-.22,16.58,5.52,29.68,19.25,39.07,1.73,1.18,3.67,2.06,6.18,3.44,1.07-3.52,1.8-5.96,2.63-8.68Z"/>
      <path class="cls-2" d="m108.81,138.65c-13.2-13.03-42.03-9.55-48.92,1.91,1.44,1.43,3.22,3.21,3.84,3.83,8.76-1.78,15.07-4.12,21.35-4.05,6.26.07,12.48,2.56,19.02,4.06,1.08-.91,2.36-1.75,3.33-2.87.69-.79.95-1.95,1.38-2.87Z"/>
      <path class="cls-2" d="m102.55,212.59c17.98-9.17,32.2-35.5,23.17-42.66-2.14.73-4.54,1.55-7.09,2.41-.79,13.97-7.33,24.18-18.95,31.57.96,2.91,1.76,5.32,2.87,8.67Z"/>
      <path class="cls-1" d="m29.16,80.42c9.48,10.2,30.47,14.98,41.85,9.97,4.21-1.85,6.88-5.09,7.31-9.57.45-4.79-2.38-8.3-6.68-9.6-6.94-2.1-14.14-3.3-21.2-5.05-4.8-1.19-9.66-2.34-14.28-4.06-9.94-3.71-13.87-11.99-14.11-21.68-.25-10.06,3.35-18.82,13.02-23.8,11.36-5.85,23.62-6.08,35.97-5.21,3.81.27,7.63.98,11.35,1.86,14.35,3.41,18.1,11.18,12.17,26.14-9.93-12-23.53-12.18-37.22-11.89-1.86.04-3.74.8-5.54,1.41-4,1.35-7.24,4.24-6.46,8.31.54,2.83,3.39,6.08,6.08,7.42,3.64,1.82,8.11,2.01,12.22,2.9,6.35,1.37,12.9,2.17,19.01,4.24,12.16,4.13,17.1,11.51,17.85,23.89.76,12.43-3.86,22.05-15.29,27.01-16.54,7.17-33.72,7.04-50.42.45-10.5-4.14-11.92-10.85-5.63-22.74Z"/>
      <path class="cls-1" d="m170.53,192.03h46.37c-.42,11.85-2.52,14.56-12.56,14.69-17.3.22-34.6.07-51.89.01-1.46,0-2.91-.54-4.94-.94-.99-9.82,1.77-18.42,7.63-25.68,6.24-7.73,13.31-14.79,20.13-22.04,6.02-6.39,11.7-12.95,15.5-22.89h-41.18c1.58-11.01,3.5-13.75,11.06-13.89,17.62-.31,35.25-.1,53.73-.1.64,9.81-1.8,18.28-6.81,25.32-7.97,11.18-17.09,21.54-25.78,32.2-3.3,4.05-6.74,7.98-11.26,13.33Z"/>
      <path class="cls-1" d="m326.56,157.24c6.38-13.34,11.47-24,16.47-34.44,13.43-2.04,16.91.49,17.07,12.67.2,14.91.15,29.83.12,44.74,0,2.22-.47,4.43-.89,8.14-5.21-1.53-9.68-2.84-14.46-4.25v-30.68c-.63-.23-1.26-.46-1.9-.7-3.91,7.75-7.83,15.5-11.78,23.33-15.73-.25-14.96-14.92-22.72-24.35v34.4q-7.34.98-14.1-2.58v-60.85c13.58-2.09,15.48-1.16,20.49,9.53,3.53,7.53,7.04,15.07,11.7,25.04Z"/>
      <path class="cls-1" d="m372.4,121.66c10.71,0,19.9-.6,28.98.15,11.7.97,18.88,7.21,18.74,16.42-.08,5.02-2.69,10-4.33,15.56,1.5,4.16,4.05,9.22,5.05,14.56,1.26,6.76-2.56,11.73-8.25,15.1-9.11,5.39-28.26,5.28-40.05-.72-.62-19.4.05-39.5-.13-61.07Zm15.36,54.18c6.88.2,12.91,2.2,16.21-3.45,1.42-2.43,1.38-7.65-.31-9.54-4.01-4.47-9.76-5.15-15.89-2.79v15.78Zm-.12-27.03c5-.36,8.48-.07,11.62-.97,4.08-1.18,5.72-4.59,5.48-8.84-.23-4.09-2.62-6.19-6.46-6.51-3.29-.28-6.62-.06-10.64-.06v16.37Z"/>
      <path class="cls-1" d="m194.55,81.92v23.65c-7.52,1.64-7.53,1.68-14.8-3.02v-60.34c11.44-1.6,22.42-1.82,33.34.57,8.93,1.95,13.15,5.89,13.86,13.07.82,8.33,0,16.22-8.53,20.83-1.57.85-3.26,1.46-4.99,2.23,6.18,8.89,11.98,17.25,17.93,25.81-10.13,3.82-14.09,2.9-19.18-4.3-2.43-3.43-4.18-7.34-6.72-10.67-2.47-3.23-5.54-6-8.35-8.98l-2.55,1.16Zm.73-28.96v15.45c5.75.05,11.51,2.29,14.95-3.23,1.48-2.37,1.59-7.22.09-9.47-3.49-5.21-9.19-3.66-15.04-2.75Z"/>
      <path class="cls-1" d="m224.26,154.15c0-4.2-.19-8.4.04-12.59.61-11.24,5.95-18.12,17.01-19.77,7.48-1.12,15.34-1.01,22.88-.12,9.53,1.12,16.35,7.86,17.26,17.35.94,9.83,1,19.85.24,29.7-.76,9.83-7.27,15.82-16.72,18.03-8.66,2.03-17.46,2.21-26.07-.67-10.05-3.37-14.22-8.81-14.71-19.33-.19-4.19-.03-8.39-.03-12.59.04,0,.07,0,.11,0Zm42.11.99s.06,0,.09,0c0-4.59.29-9.2-.07-13.77-.55-7.14-4.35-10.28-12.3-10.8-8.12-.53-14.31,2.76-14.8,9.46-.69,9.48-.61,19.14.4,28.58.74,6.84,5.95,9.04,15.27,8.28,7.63-.62,10.65-3.18,11.33-10.29.36-3.79.06-7.64.06-11.47Z"/>
      <path class="cls-1" d="m109.76,39.74c6.09,1.88,10.27,3.18,15.39,4.76,0,7.13,0,13.56,0,19.98,0,6.51-.2,13.02,0,19.52.27,8.76,5.08,13.26,13.77,13.32,8.46.06,13.53-4.56,13.8-13.45.31-10.32-.02-20.66.02-31,.02-3.72.32-7.44.56-12.56,4.91,1.17,8.77,2.09,12.7,3.03.61,2.53,1.42,4.34,1.43,6.15.06,12.25-.13,24.49-.07,36.74.05,9.77-5.01,15.87-13.79,18.97-10.49,3.7-21.12,3.72-31.49-.67-7.38-3.12-11.9-9.02-12.17-16.78-.54-15.21-.16-30.46-.16-48.02Z"/>
      <path class="cls-1" d="m437.7,90.11h-19.77c-4.38,8.88-6.65,20.31-20.62,16.36,4.66-29.11,16.9-55.64,30.79-66.18,6.13,3.31,10.19,8.9,12.97,15.06,4.05,9.01,7.3,18.38,10.68,27.67,2.72,7.47,5.13,15.05,7.69,22.61-12.41,2.8-13.41,2.1-21.74-15.52Zm-3.19-10.95c-.69-7.64-3.16-13.6-8.02-19.46-1.9,6.15-3.81,12.31-6.02,19.46h14.04Z"/>
      <path class="cls-1" d="m459.56,121.85h45.4c.14,8.04-1.05,9.76-8.17,10.14-6.86.36-13.76.08-21.88.08-.22,4.78-.4,8.76-.64,14.26h29.08c-2.97,10.55-3.5,11.17-11.35,11.51-5.31.23-10.65.04-16.79.04v17.9h30.31c1.74,7.13-1.35,10.9-6.19,11.15-10.68.56-21.46.15-32.15-.49-4.57-.27-7.64-3.25-7.62-8.44.04-18.32.02-36.64.02-56.14Z"/>
      <path class="cls-1" d="m365.43,87.67c4.34-12.19,8.5-24.46,13.09-36.56,3.67-9.66,7.09-11.09,18.88-8.08-10.26,22.28-12.18,48.24-32.75,65.95-8.11-4.82-13.36-11.86-16.69-19.93-6.21-15.07-11.6-30.48-17.35-45.79,10.85-3.38,15.02-1.72,18.61,7.57,3.3,8.54,5.97,17.33,9.02,25.97,1.36,3.83,2.98,7.58,4.49,11.36.9-.16,1.81-.32,2.71-.48Z"/>
      <path class="cls-1" d="m233.83,43.15c10.79-3.24,14.79-1.66,18.44,7.74,4.01,10.31,7.39,20.86,11.14,31.27.73,2.04,1.88,3.93,3.9,8.08,3.99-10.82,7.23-19.58,10.45-28.35,1.58-4.3,2.79-8.76,4.73-12.89,3.57-7.58,7.3-8.81,17.82-5.87-10.08,22.31-12.13,48.22-32.65,65.87-8.41-5.16-13.88-12.52-17.31-20.97-5.98-14.76-11.06-29.87-16.54-44.88Z"/>
      <path class="cls-3" d="m308.9,18.36c-16.29-7.44-31.02-9.91-46.46-6.19-15.52,3.74-27.73,12.54-37.72,24.39-9.18-1.32-17.77-2.56-26.39-3.8,17.72-35.5,81.05-44.94,110.57-14.4Z"/>
      <path class="cls-3" d="m507.22,206.17c-26.69,33.22-81.79,22.5-103.46-9.88,6.76-3.05,13.48-6.09,20.54-9.27,3.51,3.24,7.54,6.67,11.23,10.44,15.68,16.04,41.95,23.9,66.72,10.91,1.6-.84,3.32-1.47,4.98-2.2Z"/>
      <path class="cls-1" d="m467.76,41.25c13.76.83,15.03,2.05,15.06,13.95.02,9.94-.1,19.88-.04,29.82.02,3.34.4,6.67.69,11.29,5.48,0,10.37,0,15.26,0,4.51,0,9.02,0,13.47,0,.91,5.89-1.27,10.02-5.97,10.17-11.05.37-22.15-.32-33.22-.88-1.66-.08-3.23-1.79-5.25-2.98v-61.38Z"/>
      <path class="cls-1" d="m323.45,106.74c-14.04-.2-15.44-1.4-15.53-12.62-.13-14.9-.14-29.8-.12-44.7,0-2.58.36-5.16.55-7.68,12.72-.32,15,1.39,15.07,11.68.13,17.51.04,35.02.04,53.31Z"/>
      <path class="cls-1" d="m434.29,120.72c3.81,1.12,7.62,2.25,11.81,3.48v63.83c-4.84-1.18-8.94-2.17-12.51-3.04-2.52-11.74-2.05-55.08.71-64.27Z"/>
      <path class="cls-3" d="m68.08,204.05c-.82,2.72-1.56,5.15-2.63,8.68-2.51-1.38-4.45-2.26-6.18-3.44-13.73-9.39-19.47-22.49-19.25-39.07,6.52-.81,9.64.98,10.96,6.59,3.77,16,4.16,16.38,17.1,27.25Z"/>
      <path class="cls-3" d="m108.81,138.65c-.42.93-.69,2.08-1.38,2.87-.97,1.11-2.25,1.96-3.33,2.87-6.54-1.5-12.77-3.99-19.02-4.06-6.28-.07-12.58,2.26-21.35,4.05-.62-.62-2.4-2.39-3.84-3.83,6.89-11.46,35.72-14.94,48.92-1.91Z"/>
      <path class="cls-3" d="m102.55,212.59c-1.11-3.35-1.91-5.76-2.87-8.67,11.61-7.39,18.15-17.6,18.95-31.57,2.55-.87,4.96-1.69,7.09-2.41,9.02,7.15-5.2,33.49-23.17,42.66Z"/>
      <path class="cls-3" d="m67.7,174.02c0-7.08,5.41-12.9,12.32-13.55.11-.99-.14-2.16-.96-3.6-23.83-7.91-28.35-13.55-32.94-41-6.12-.4-6.68-.49-7.13,2.22-.99,5.97-1.72,12.03-1.87,18.08-.09,3.68,1.09,7.4,1.88,12.15-22.31,5.7-35.38,18.43-39,39.96,6.79-11.95,15.16-21.63,29.97-23.67,15.1-2.08,26.81,4.04,36.1,14.66.92-.27,1.68-.61,2.32-1-.44-1.34-.68-2.76-.68-4.25Z"/>
      <path class="cls-3" d="m149.72,170.03c.33-.47.67-.94.99-1.41,1.1-1.58,2.24-3.16,3.44-4.7-6.62-7.42-15.93-12.55-27.94-15.61.78-4.75,1.97-8.47,1.88-12.15-.15-6.04-.88-12.11-1.87-18.08-.45-2.7-1-2.61-7.13-2.22-4.59,27.45-9.11,33.08-32.94,41-.82,1.44-1.07,2.61-.96,3.6,6.91.66,12.32,6.47,12.32,13.55,0,1.48-.25,2.91-.68,4.25.64.39,1.4.73,2.32,1,9.28-10.62,21-16.74,36.1-14.66,5.68.78,10.41,2.7,14.47,5.43Z"/>
      <path class="cls-3" d="m100.76,221.94c-8.9-11.78-7.99-24.82-4.39-37.88-.98-.52-1.84-1.14-2.51-1.52-2.46,3.54-6.55,5.87-11.19,5.87-4.35,0-8.21-2.04-10.7-5.21-.8.55-1.64,1.23-2.34,1.63,8.63,26.05-3.8,49.95-40.62,52.3,22.41,8.11,38.86.19,53.93-13.34,15.6,15.27,32.85,21.29,53.4,13.37-14.02-.15-26.62-3.35-35.58-15.21Z"/>
    </g>
  </g>
</svg>