<?xml version="1.0" encoding="UTF-8"?>
<svg id="Capa_2" data-name="Capa 2" xmlns="http://www.w3.org/2000/svg" viewBox="0 0 235.57 335.65">
  <defs>
    <style>
      .cls-1 {
        stroke-width: 0px;
      }
    </style>
  </defs>
  <g id="adornos">
    <g id="nocturna__logo">
      <path class="cls-1" d="m0,212.65c1.17-6.96,1.81-14.05,3.6-20.85,5.81-22.04,14.8-42.6,30.37-59.69,10.88-11.94,23.92-20.32,40.09-23.2,1.8-.32,3.66-.75,5.44-.6,2.49.21,3.63-.65,4.47-3.02.89-2.54,2.46-4.85,3.87-7.5,2.67,1.67,5.01,3.2,7.41,4.63,14,8.39,28.67,15.17,44.77,18.43,8.73,1.77,17.5,2.24,26.26.25,1.46-.33,2.21-.02,2.99,1.28,8.24,13.7,11.45,28.28,9.09,44.27-2.4,16.22-6.71,31.84-12.29,47.22-1.58,4.34-1.32,9.34-1.99,14.03-2.08,14.4-4.29,28.79-6.29,43.2-1.06,7.66-1.82,15.36-2.7,23.04-.16,1.42.53,2.21,1.58,3.27,1.85,1.88,3.36,4.25,4.44,6.67.89,1.99,1.02,4.34,1.36,6.55.21,1.38-.35,2.07-1.95,2.11-8.99.26-17.97.61-26.96.96-7.99.31-15.97.67-23.96,1.01-.28.01-.56.08-.85.59,2.01.24,4.02.55,6.04.71,16.63,1.33,33.26,1.82,49.87-.37,15.16-2,28.72-7.58,40.31-17.65,5.56-4.83,9.16-10.95,9.9-18.22.36-3.48-.94-7.15-1.64-10.7-.25-1.28-.95-2.48-1.43-3.72-2.13-5.5.22-11.45,5.71-13.66,1.34-.54,3.35-.36,4.7.26,5.36,2.46,8.61,7,10.75,12.29,3.52,8.73,3.68,17.31-.76,26-8.3,16.24-21.23,27.32-37.53,34.78-13.47,6.16-27.77,9.05-42.48,10.14-1.07.08-2.12.31-3.18.47h-25c-3.88-.33-7.76-.68-11.65-.99-14.3-1.12-28.44-3.17-42.16-7.49-10.89-3.42-21.17-8.03-29.48-16.14-6.05-5.91-9.76-12.96-10.14-21.59-.05-1.09-.53-2.45-1.3-3.16-12.59-11.67-21.27-25.76-25.7-42.3-1.69-6.31-2.4-12.87-3.56-19.32,0-4,0-8,0-12Z"/>
      <path class="cls-1" d="m163.71,104.54c-9.12,1.16-18.04-.5-26.95-2.12-16.82-3.06-31.32-10.84-44.18-21.88-.65-.56-1.21-1.89-1.02-2.67,3.88-15.69,7.91-31.38,17.68-44.69,3.57-4.86,8.01-9.09,12.01-13.64.85-.97,1.62-2.04,2.27-3.16,2.62-4.51,5.14-9.07,7.78-13.57.61-1.04,1.57-1.88,2.37-2.81.3.03.6.06.9.1,1.1,3.25,2.34,6.46,3.26,9.77.75,2.71.98,5.57,1.73,8.29.31,1.11,1.19,2.32,2.16,2.94,6.35,4.1,13.17,7.56,19.14,12.15,9.33,7.18,16.39,16.51,22.05,26.81.82,1.49.94,3.75.52,5.44-1.9,7.64-5.79,13.77-13.83,16.28-.4.12-.83.37-1.2.3-3.59-.72-4.29,1.69-5.2,4.36-1.79,5.26-1.92,10.41-.02,15.63.23.62.42,1.26.6,1.9.04.14-.04.32-.08.58Zm-7.86-56.22c.06.46.12.93.19,1.39,2.95.37,5.9,1.02,8.85,1.02,1.91,0,2.74-1.81,2.5-3.63-.27-1.98-1.87-2.62-3.53-2.06-2.73.91-5.34,2.18-8,3.29Z"/>
    </g>
  </g>
</svg>