<?xml version="1.0" encoding="UTF-8"?>
<svg id="Capa_2" data-name="Capa 2" xmlns="http://www.w3.org/2000/svg" viewBox="0 0 213.24 300.04">
  <defs>
    <style>
      .cls-1, .cls-2, .cls-3 {
        stroke-width: 0px;
      }

      .cls-2 {
        fill: #fff;
      }

      .cls-3 {
        fill: #a7fe2f;
      }
    </style>
  </defs>
  <g id="adornos">
    <g id="penguin__logo">
      <path class="cls-1" d="m106.3,0C4.23.26,0,127.45,0,150.92c.13,70.91,29.11,149.25,106.94,149.12,77.83-.13,106.43-79.11,106.3-150.02C213.11,126.56,208.36-.13,106.3,0"/>
      <path class="cls-3" d="m106.94,295.81c-73.99.13-93.86-78.47-93.99-145.92C12.95,127.71,9.23,3.72,106.17,3.46c96.94-.13,94.24,124.38,94.24,146.69,0,67.45-19.49,145.41-93.48,145.66"/>
      <path class="cls-1" d="m155.66,115.91c-8.72-13.85-20.9-30.13-22.18-46.93-.9-10.51-.26-22.31-7.31-31.03-2.05-2.56-5-4.87-7.82-6.41-3.08-1.54-7.05-2.56-10.51-2.56s-6.67.51-9.75,1.41c-3.72,1.15-7.44,2.44-11.28,3.08-4.49.64-8.08.38-12.57-.64-2.56-.64-3.33-.77-5.9-1.41-1.41-.26-5.39-1.41-6.54-.26-2.95,2.95,3.33,6.54,5.13,7.82,4.1,2.95,5.77,3.97,9.75,7.31,5.26,4.62,9.49,10,11.03,16.8.51,2.05.64,3.97.64,6.03.38,29.49-48.85,58.47-48.08,110.66.26,18.46,10.13,21.54,10,11.28-.13-12.18,4.23-25.26,8.59-36.54,1.03-2.56,4.36-3.33,3.59,1.15-1.15,7.18-4.1,19.49-3.85,39.75.13,4.87.38,9.75,1.03,14.62.51,3.97,1.41,7.69,2.56,11.54.9,3.08,2.18,6.28,3.72,9.1,1.28,2.31,2.69,4.49,4.36,6.41s3.46,3.33,5.39,5c1.15.9,2.44,1.8,2.95,3.21.77,2.18-1.92,2.95-3.33,3.59-1.54.77-2.95,1.54-4.49,2.18-2.18,1.03-4.23,2.18-6.28,3.33-1.28.77-2.69,1.15-3.97,2.05-1.28.77-1.8,2.05,0,2.44.9.13,1.8-.13,2.69-.13,1.54,0,3.08-.26,4.49.26,1.92.77,1.8,2.56,1.92,4.36.13,1.92,1.41,2.56,3.21,2.05,2.05-.51,3.46-2.05,5-3.33,1.15-.9,2.31-1.92,3.72-2.56,2.69-1.28,5.77-.9,8.72-.77,1.54.13,3.85.77,5.13-.51s.38-3.59-.26-5c-.51-1.41-1.28-2.69-1.92-4.1-.26-.64-.77-1.15-1.03-1.8-1.15-2.56,7.82-4.49,9.1-4.87,4.36-1.15,8.85-2.18,13.34-2.56,4.23-.38,8.98-.38,12.95,1.28,1.67.64,3.08,1.92,4.23,3.33.64.77,2.18,3.21.77,4.23-2.05,1.54-4.1,2.82-6.15,4.36-1.28,1.03-2.44,2.05-3.59,3.21-.77.9-1.03,2.56.64,2.44,2.18-.13,4.36-.26,6.54-.26,1.54,0,3.21.26,4.49,1.15,2.18,1.41,2.56,4.62,5,5.77.64.38,1.54.38,2.18.13,1.54-.51,2.31-2.05,3.08-3.33.77-1.15,1.54-2.31,2.82-2.95.77-.38,1.67-.64,2.56-.64,1.54,0,3.21,0,4.74.26,1.28.13,2.95.77,4.1-.13,2.05-1.67-3.46-5.26-4.49-5.9-2.56-1.54-6.15-3.21-6.92-6.41-.9-3.85,1.03-7.69,2.56-11.16,1.67-3.59,3.97-6.8,5.26-10.51,1.15-3.46,2.05-6.92,2.56-10.64,2.82-19.75-1.8-40.78-7.57-59.62-.64-2.31-1.54-4.49-2.18-6.8-1.03-3.59,2.44-4.36,4.23-.9,1.67,3.33,12.69,24.49,16.03,40.39,2.05,10,9.62,10.39,9.36-7.44-.51-26.03-10.26-44.75-22.18-63.86"/>
      <path class="cls-2" d="m146.56,193.87c1.28,13.08,2.82,35.52-13.08,36.29-4.23.26-9.49-2.69-17.18-2.18-13.21.9-17.18,5.9-28.08,3.97-6.15-1.15-10.77-4.62-13.34-10.64-2.95-6.8-3.21-14.62-3.72-21.93-.51-8.21-.51-16.41,0-24.62.38-5.9,1.03-11.8,1.8-17.69,1.28-9.75,3.33-19.36,5.64-28.98,1.92-8.46,3.97-16.93,7.69-24.88,2.69-5.77,6.67-11.41,12.57-14.36,6.41-3.21,15.39-3.46,21.8-.26,14.36,7.31,13.98,24.49,14.36,38.34.38,10.64,1.67,21.67,3.59,32.18,1.92,11.8,6.67,22.95,7.95,34.75m-23.21-143.23c2.95,3.46,2.69,17.57-2.05,22.57-2.82,2.82-7.57,3.21-11.28,3.72-4.23.64-8.21,1.54-12.31,2.56-3.85.9-3.59-3.21.13-6.15,5.64-4.36,19.62-6.41,22.95-22.7.26-.64.9-1.92,2.56,0m-20.26,3.72c3.97,2.56,9.49.9,12.44-3.72,2.95-4.62,2.18-10.39-1.8-12.95s-9.49-.9-12.44,3.72c-2.95,4.62-2.18,10.39,1.8,12.95"/>
      <path class="cls-1" d="m106.68,45.39c1.54-2.18,4.1-2.95,5.77-1.8,1.8,1.15,1.92,3.85.51,6.03s-4.1,2.95-5.77,1.8c-1.8-1.15-1.92-3.85-.51-6.03"/>
    </g>
  </g>
</svg>