<svg width="40" height="41" viewBox="0 0 40 41" fill="none" xmlns="http://www.w3.org/2000/svg">
<g id="Alien">
<path id="Vector" d="M20 2.94983C16.0231 2.95438 12.2105 4.53619 9.39842 7.34825C6.58636 10.1603 5.00455 13.973 5 17.9498C5 21.6998 6.9625 26.553 10.2516 30.9186C13.5609 35.317 17.2047 37.9498 20 37.9498C22.7953 37.9498 26.4391 35.3233 29.7484 30.9186C33.0375 26.5436 35 21.6998 35 17.9498C34.9955 13.973 33.4136 10.1603 30.6016 7.34825C27.7895 4.53619 23.9769 2.95438 20 2.94983ZM10 18.5748C10 18.0775 10.1975 17.6006 10.5492 17.249C10.9008 16.8974 11.3777 16.6998 11.875 16.6998C13.3668 16.6998 14.7976 17.2925 15.8525 18.3474C16.9074 19.4022 17.5 20.833 17.5 22.3248C17.5 22.8221 17.3025 23.299 16.9508 23.6507C16.5992 24.0023 16.1223 24.1998 15.625 24.1998C14.1332 24.1998 12.7024 23.6072 11.6475 22.5523C10.5926 21.4974 10 20.0667 10 18.5748ZM22.5 31.6998H17.5C17.1685 31.6998 16.8505 31.5681 16.6161 31.3337C16.3817 31.0993 16.25 30.7813 16.25 30.4498C16.25 30.1183 16.3817 29.8004 16.6161 29.5659C16.8505 29.3315 17.1685 29.1998 17.5 29.1998H22.5C22.8315 29.1998 23.1495 29.3315 23.3839 29.5659C23.6183 29.8004 23.75 30.1183 23.75 30.4498C23.75 30.7813 23.6183 31.0993 23.3839 31.3337C23.1495 31.5681 22.8315 31.6998 22.5 31.6998ZM24.375 24.1998C23.8777 24.1998 23.4008 24.0023 23.0492 23.6507C22.6975 23.299 22.5 22.8221 22.5 22.3248C22.5 20.833 23.0926 19.4022 24.1475 18.3474C25.2024 17.2925 26.6332 16.6998 28.125 16.6998C28.6223 16.6998 29.0992 16.8974 29.4508 17.249C29.8025 17.6006 30 18.0775 30 18.5748C30 19.3135 29.8545 20.045 29.5718 20.7274C29.2891 21.4099 28.8748 22.03 28.3525 22.5523C27.8301 23.0746 27.21 23.489 26.5276 23.7717C25.8451 24.0543 25.1137 24.1998 24.375 24.1998Z" fill="#A7FE2F"/>
</g>
</svg>
