<svg xmlns="http://www.w3.org/2000/svg" width="59" height="493" fill="none" viewBox="0 0 59 493">
  <mask id="a" fill="#fff">
    <path fill-rule="evenodd" d="M29.697 28.787c15.097 0 27.336-11.458 27.336-25.594 0-.461-.013-.92-.038-1.376A26.01 26.01 0 0 1 59 11.847c0 15.254-13.208 27.62-29.5 27.62S0 27.1 0 11.847C0 7.896.887 4.138 2.484.738a24.269 24.269 0 0 0-.124 2.456c0 14.136 12.239 25.594 27.337 25.594Z" clip-rule="evenodd"/>
  </mask>
  <path fill="#A7FE2F" d="M56.995 1.817 59.764.664a3 3 0 0 0-5.765 1.323l2.995-.17ZM2.485.737l2.984.303a3 3 0 0 0-5.7-1.58L2.484.737Zm51.548 2.456c0 12.296-10.706 22.594-24.336 22.594v6c16.565 0 30.336-12.618 30.336-28.594h-6ZM54 1.987c.023.4.034.801.034 1.206h6c0-.518-.014-1.033-.043-1.545L54 1.987Zm.226.984A23.01 23.01 0 0 1 56 11.848h6A29.01 29.01 0 0 0 59.764.664l-5.539 2.307ZM56 11.848c0 13.413-11.675 24.619-26.5 24.619v6c17.76 0 32.5-13.526 32.5-30.62h-6ZM29.5 36.466C14.675 36.467 3 25.26 3 11.847h-6c0 17.094 14.74 30.62 32.5 30.62v-6ZM3 11.847c0-3.498.784-6.822 2.2-9.835L-.23-.539A29.037 29.037 0 0 0-3 11.847h6Zm2.36-8.654c0-.727.037-1.445.109-2.153L-.501.433c-.092.909-.139 1.83-.139 2.76h6Zm24.337 22.594C16.067 25.787 5.36 15.49 5.36 3.193h-6c0 15.976 13.771 28.594 30.337 28.594v-6Z" mask="url(#a)"/>
  <mask id="b" fill="#fff">
    <path fill-rule="evenodd" d="M56.526 72.815c-2.454 11.775-13.533 20.663-26.83 20.663-13.512 0-24.735-9.18-26.942-21.242A26.056 26.056 0 0 0 0 83.903c0 15.254 13.208 27.619 29.5 27.619S59 99.157 59 83.902c0-3.943-.883-7.694-2.474-11.087Z" clip-rule="evenodd"/>
  </mask>
  <path fill="#A7FE2F" d="m56.526 72.815 2.717-1.274a3 3 0 0 0-5.653.661l2.936.613Zm-53.772-.58 2.95-.54a3 3 0 0 0-5.635-.798l2.685 1.339Zm50.836-.033c-2.144 10.283-11.911 18.276-23.893 18.276v6c14.61 0 27-9.782 29.766-23.051l-5.873-1.225ZM29.697 90.478c-12.18 0-22.066-8.256-23.992-18.782l-5.902 1.08C2.29 86.373 14.85 96.477 29.697 96.477v-6ZM3 83.903c0-3.69.872-7.186 2.438-10.329l-5.37-2.677A29.056 29.056 0 0 0-3 83.903h6Zm26.5 24.619c-14.825 0-26.5-11.205-26.5-24.62h-6c0 17.095 14.74 30.62 32.5 30.62v-6ZM56 83.902c0 13.415-11.675 24.62-26.5 24.62v6c17.76 0 32.5-13.525 32.5-30.62h-6Zm-2.19-9.814A23.037 23.037 0 0 1 56 83.903h6c0-4.397-.985-8.582-2.757-12.362l-5.433 2.547Z" mask="url(#b)"/>
  <mask id="c" fill="#fff">
    <path fill-rule="evenodd" d="M54.923 144.653c-4.128 9.099-13.868 15.491-25.226 15.491-11.509 0-21.356-6.562-25.388-15.853C1.575 148.48 0 153.403 0 158.671c0 15.254 13.208 27.62 29.5 27.62S59 173.925 59 158.671c0-5.117-1.486-9.908-4.077-14.018Z" clip-rule="evenodd"/>
  </mask>
  <path fill="#A7FE2F" d="m54.923 144.653 2.538-1.599a3 3 0 0 0-5.27.36l2.732 1.239Zm-50.614-.362 2.752-1.194a2.999 2.999 0 0 0-5.264-.446l2.512 1.64Zm47.883-.877c-3.617 7.97-12.25 13.73-22.495 13.73v6c12.472 0 23.318-7.024 27.958-17.251l-5.464-2.479Zm-22.495 13.73c-10.382 0-19.107-5.914-22.636-14.047l-5.504 2.388c4.534 10.449 15.504 17.659 28.14 17.659v-6ZM3 158.671c0-4.657 1.39-9.015 3.821-12.74l-5.024-3.28C-1.24 147.304-3 152.793-3 158.671h6Zm26.5 24.62c-14.825 0-26.5-11.206-26.5-24.62h-6c0 17.094 14.74 30.62 32.5 30.62v-6Zm26.5-24.62c0 13.414-11.675 24.62-26.5 24.62v6c17.76 0 32.5-13.526 32.5-30.62h-6Zm-3.614-12.418c2.302 3.653 3.614 7.894 3.614 12.418h6c0-5.709-1.66-11.052-4.539-15.617l-5.075 3.199Z" mask="url(#c)"/>
  <path stroke="#A7FE2F" stroke-linejoin="round" stroke-width="3" d="M57.5 246.679c0 14.334-12.441 26.119-28 26.119s-28-11.785-28-26.119 12.441-26.12 28-26.12 28 11.786 28 26.12Z"/>
  <mask id="d" fill="#fff">
    <path fill-rule="evenodd" d="M3.886 348.398c4.013-9.327 13.88-15.921 25.417-15.921 11.692 0 21.669 6.772 25.576 16.298C57.497 344.65 59 339.832 59 334.686c0-15.254-13.208-27.619-29.5-27.619S0 319.432 0 334.686c0 4.991 1.414 9.672 3.886 13.712Z" clip-rule="evenodd"/>
  </mask>
  <path fill="#A7FE2F" d="m3.886 348.398-2.559 1.566a3 3 0 0 0 5.315-.38l-2.756-1.186Zm50.993.377-2.776 1.138a3 3 0 0 0 5.309.469l-2.533-1.607Zm-48.237.809c3.513-8.164 12.254-14.107 22.661-14.107v-6c-12.666 0-23.659 7.245-28.172 17.735l5.511 2.372Zm22.661-14.107c10.548 0 19.382 6.104 22.8 14.436l5.551-2.277c-4.396-10.718-15.516-18.159-28.35-18.159v6ZM56 334.686c0 4.551-1.327 8.814-3.654 12.481l5.066 3.215C60.32 345.8 62 340.428 62 334.686h-6Zm-26.5-24.619c14.825 0 26.5 11.205 26.5 24.619h6c0-17.093-14.74-30.619-32.5-30.619v6ZM3 334.686c0-13.414 11.675-24.619 26.5-24.619v-6c-17.76 0-32.5 13.526-32.5 30.619h6Zm3.445 12.146C4.248 343.242 3 339.099 3 334.686h-6c0 5.568 1.58 10.788 4.327 15.278l5.118-3.132Z" mask="url(#d)"/>
  <mask id="e" fill="#fff">
    <path fill-rule="evenodd" d="M2.474 420.251c2.454-11.775 13.533-20.663 26.83-20.663 13.512 0 24.735 9.18 26.942 21.243A26.06 26.06 0 0 0 59 409.163c0-15.254-13.208-27.619-29.5-27.619S0 393.909 0 409.163c0 3.944.883 7.695 2.474 11.088Z" clip-rule="evenodd"/>
  </mask>
  <path fill="#A7FE2F" d="m2.474 420.251-2.717 1.274a3 3 0 0 0 5.653-.661l-2.936-.613Zm53.772.58-2.95.539a3 3 0 0 0 5.635.799l-2.685-1.338Zm-50.836.033c2.144-10.283 11.911-18.276 23.893-18.276v-6c-14.61 0-27 9.782-29.766 23.051l5.873 1.225Zm23.893-18.276c12.18 0 22.067 8.256 23.992 18.782l5.902-1.079c-2.488-13.599-15.048-23.703-29.894-23.703v6ZM56 409.163c0 3.69-.872 7.186-2.438 10.329l5.37 2.677A29.056 29.056 0 0 0 62 409.163h-6Zm-26.5-24.619c14.825 0 26.5 11.205 26.5 24.619h6c0-17.093-14.74-30.619-32.5-30.619v6ZM3 409.163c0-13.414 11.675-24.619 26.5-24.619v-6c-17.76 0-32.5 13.526-32.5 30.619h6Zm2.19 9.815A23.035 23.035 0 0 1 3 409.163h-6c0 4.397.985 8.582 2.757 12.362l5.433-2.547Z" mask="url(#e)"/>
  <mask id="f" fill="#fff">
    <path fill-rule="evenodd" d="M29.303 464.278c-15.097 0-27.336 11.459-27.336 25.594 0 .462.013.921.038 1.376A26.005 26.005 0 0 1 0 481.218c0-15.253 13.208-27.619 29.5-27.619S59 465.965 59 481.218c0 3.953-.887 7.712-2.484 11.112a24.37 24.37 0 0 0 .124-2.458c0-14.135-12.239-25.594-27.337-25.594Z" clip-rule="evenodd"/>
  </mask>
  <path fill="#A7FE2F" d="m2.005 491.248-2.769 1.154a3 3 0 0 0 5.765-1.323l-2.996.169Zm54.51 1.082-2.984-.304a3 3 0 0 0 5.7 1.579l-2.715-1.275Zm-51.548-2.458c0-12.295 10.706-22.594 24.336-22.594v-6c-16.565 0-30.336 12.619-30.336 28.594h6ZM5 491.079a21.357 21.357 0 0 1-.034-1.207h-6c0 .519.014 1.034.043 1.546l5.99-.339Zm-.226-.984A23.008 23.008 0 0 1 3 481.218h-6c0 3.945.793 7.719 2.236 11.184l5.539-2.307ZM3 481.218c0-13.413 11.675-24.619 26.5-24.619v-6c-17.76 0-32.5 13.526-32.5 30.619h6Zm26.5-24.619c14.825 0 26.5 11.206 26.5 24.619h6c0-17.093-14.74-30.619-32.5-30.619v6ZM56 481.218a23.04 23.04 0 0 1-2.2 9.836l5.43 2.551A29.031 29.031 0 0 0 62 481.218h-6Zm-2.36 8.654c0 .728-.037 1.446-.109 2.154l5.97.607c.092-.909.139-1.83.139-2.761h-6Zm-24.337-22.594c13.63 0 24.337 10.299 24.337 22.594h6c0-15.975-13.771-28.594-30.337-28.594v6Z" mask="url(#f)"/>
</svg>
