<?xml version="1.0" encoding="UTF-8"?>
<svg id="Capa_2" data-name="Capa 2" xmlns="http://www.w3.org/2000/svg" viewBox="0 0 66.3 546.96">
  <defs>
    <style>
      .cls-1 {
        stroke-width: 3px;
      }

      .cls-1, .cls-2 {
        fill: none;
        stroke: #a7fe2f;
        stroke-linejoin: round;
      }

      .cls-2 {
        stroke-width: 2.4px;
      }
    </style>
  </defs>
  <g id="adornos">
    <g id="moons">
      <path class="cls-2" d="m58.4,81.22c0,.24.02.48.02.72,0,13.96-11.31,25.27-25.27,25.27s-25.27-11.31-25.27-25.27c0-.24.01-.48.02-.72-4.01,5.3-6.39,11.91-6.39,19.07,0,17.48,14.17,31.65,31.65,31.65s31.65-14.17,31.65-31.65c0-7.16-2.38-13.77-6.39-19.07Z"/>
      <path class="cls-1" d="m56.61,160.45c-3.73,9.31-12.82,15.89-23.47,15.89s-19.74-6.58-23.47-15.89c-5.08,5.62-8.18,13.06-8.18,21.23,0,17.48,14.17,31.65,31.65,31.65s31.65-14.17,31.65-31.65c0-8.17-3.1-15.62-8.18-21.23Z"/>
      <circle id="moon" class="cls-1" cx="33.15" cy="273.48" r="31.65"/>
      <path class="cls-1" d="m58.01,1.5c1.26,3.11,1.96,6.51,1.96,10.07,0,14.81-12.01,26.82-26.82,26.82S6.33,26.38,6.33,11.57c0-3.56.7-6.96,1.96-10.07C4.04,6.89,1.5,13.68,1.5,21.07c0,17.48,14.17,31.65,31.65,31.65s31.65-14.17,31.65-31.65c0-7.39-2.54-14.18-6.79-19.57Z"/>
      <path class="cls-2" d="m7.89,465.74c0-.24-.02-.48-.02-.72,0-13.96,11.31-25.27,25.27-25.27s25.27,11.31,25.27,25.27c0,.24-.01.48-.02.72,4.01-5.3,6.39-11.91,6.39-19.07,0-17.48-14.17-31.65-31.65-31.65s-31.65,14.17-31.65,31.65c0,7.16,2.38,13.77,6.39,19.07Z"/>
      <path class="cls-1" d="m9.68,386.52c3.73-9.31,12.82-15.89,23.47-15.89s19.74,6.58,23.47,15.89c5.08-5.62,8.18-13.06,8.18-21.23,0-17.48-14.17-31.65-31.65-31.65s-31.65,14.17-31.65,31.65c0,8.17,3.1,15.62,8.18,21.23Z"/>
      <path class="cls-1" d="m8.29,545.46c-1.26-3.11-1.96-6.51-1.96-10.07,0-14.81,12.01-26.82,26.82-26.82s26.82,12.01,26.82,26.82c0,3.56-.7,6.96-1.96,10.07,4.25-5.39,6.79-12.18,6.79-19.57,0-17.48-14.17-31.65-31.65-31.65s-31.65,14.17-31.65,31.65c0,7.39,2.54,14.18,6.79,19.57Z"/>
    </g>
  </g>
</svg>