<svg xmlns="http://www.w3.org/2000/svg" width="550" height="471" fill="none" viewBox="0 0 550 471">
  <g class="hero__logo">
    <g class="logo__body" filter="url(#a)">
      <path fill="url(#b)" d="M461.796 100.616C425.417 42.804 373.456 13.958 342.51.646c-5.691-2.452-11.806 2.446-10.636 8.531l16.81 87.505c.924 4.804-2.793 9.237-7.679 9.167a521.518 521.518 0 0 0-63.626 2.951 522.665 522.665 0 0 0-100.094 20.886 7.707 7.707 0 0 1-7.973-2.123 548.104 548.104 0 0 0-44.169-42.77c-9.785-8.461-21.809-18.957-48.421-37.361a587.6 587.6 0 0 0-41.018-25.936c-1.653-.641-4.546-1.494-7.933-.965 0 0-3.616 1.012-7.455 3.517-36.944 24.119-26.26 177.267 54.918 281.194C189.092 451.01 388.879 432.424 414.445 422.281a90.61 90.61 0 0 0 3.728-1.587c14.2-11.178 32.686-28.418 48.533-53.261 49.955-78.343 45.034-187.445-4.91-266.812v-.005Z"/>
    </g>
    <g class="logo__face face">
      <g class="face__eyes eye">
        <g class="eye__first">
          <path fill="#000" d="M277.902 289.66c-1.364-2.952-3.834-5.498-6.944-7.179a20.328 20.328 0 0 0-1.023-.512 5.715 5.715 0 0 1-3.04-7.068 81.627 81.627 0 0 0 1.905-6.414c5.921-23.449 1.035-48.092-13.765-69.389-14.647-21.08-37.284-36.367-63.756-43.053-9.384-2.369-18.968-3.575-28.476-3.575-21.538 0-42.547 6.315-59.157 17.781a92.147 92.147 0 0 0-8.38 6.521 5.729 5.729 0 0 1-3.774 1.423 5.683 5.683 0 0 1-4.116-1.741 16.912 16.912 0 0 0-4.104-3.092c-2.446-1.317-5.122-2.017-7.738-2.017-4.604 0-8.514 2.152-10.46 5.75-1.623 3.011-1.653 6.686-.083 10.084 1.364 2.952 3.834 5.498 6.944 7.18.27.147.541.282.812.411a5.79 5.79 0 0 1 2.957 3.287 5.787 5.787 0 0 1-.264 4.416 80.782 80.782 0 0 0-5.763 15.74c-5.92 23.449-1.035 48.092 13.765 69.389 14.647 21.079 37.285 36.367 63.756 43.053 9.384 2.369 18.968 3.569 28.476 3.575 21.532 0 42.541-6.315 59.152-17.781 5.703-3.94 10.866-8.426 15.335-13.342a5.736 5.736 0 0 1 7.585-.799 16.71 16.71 0 0 0 1.869 1.17c2.447 1.323 5.122 2.017 7.738 2.017 4.604 0 8.515-2.152 10.461-5.751 1.628-3.01 1.658-6.685.082-10.084h.006Z" class="eye__first-contour"/>
          <path fill="url(#c)" d="M256.604 273.457c14.218-41.885-13.261-89.08-61.376-105.413-48.115-16.333-98.646 4.381-112.864 46.266-14.218 41.885 13.26 89.08 61.376 105.413 48.115 16.333 98.646-4.381 112.864-46.266Z" class="eye__first-iris"/>
          <path fill="#000" d="M148.286 181.67c-6.556.894-11.925 33.645-.106 63.867 11.436 29.241 37.278 51.808 43.017 49.133 3.552-1.653-3.193-19.698-16.834-55.712-14.606-38.572-21.991-57.847-26.077-57.288Z" class="eye__first-pupil"/>
        </g>
        <g class="eye__second">
          <path fill="url(#d)" d="M364.395 257.548c27.083-18.193 31.395-59.208 9.63-91.61-21.766-32.402-61.365-43.921-88.449-25.728-27.083 18.192-31.394 59.207-9.629 91.609 21.765 32.402 61.364 43.921 88.448 25.729Z" class="eye__second-eyelid"/>
          <path fill="#000" d="M381 166.9c-14.858-24.943-40.318-40.442-66.437-40.442-9.19 0-18.339 2.058-26.447 5.956a6.655 6.655 0 0 1-2.888.658 6.727 6.727 0 0 1-4.909-2.14c-2.975-3.21-6.909-5.057-10.802-5.057-2.628 0-5.121.894-7.02 2.511-2.623 2.235-3.998 5.651-3.763 9.367.206 3.222 1.593 6.491 3.91 9.214 2.122 2.493 4.768 4.251 7.65 5.086.57.164 1.123.405 1.628.717.065.041.13.077.194.112 17.863 9.86 34.527 26.747 46.916 47.551 13.453 22.584 20.509 47.85 19.351 69.323-.018.294 0 .588.029.877.035.299.053.599.047.899a17.069 17.069 0 0 0 .435 4.04c1.541 6.762 6.692 11.489 12.513 11.489.764 0 1.534-.088 2.287-.259 3.334-.758 6.121-3.163 7.644-6.585 1.029-2.317 1.446-5.098 1.176-7.838a6.653 6.653 0 0 1 2.928-6.209c14.047-9.42 23.525-24.514 26.689-42.506 3.334-18.957-.618-39.113-11.131-56.759v-.005Z" class="eye__second-contour"/>
          <path fill="url(#e)" d="M375.35 172.203c-18.375-30.852-54.83-43.017-81.413-27.183a47.896 47.896 0 0 0-2.729 1.753c-3.91 2.693-3.927 8.508-.011 11.189 13.412 9.185 26.2 22.773 36.296 39.713 11.172 18.757 17.158 38.466 18.04 55.971.241 4.751 5.168 7.785 9.525 5.885a48.252 48.252 0 0 0 5.433-2.793c26.583-15.834 33.239-53.683 14.864-84.535h-.005Z" class="eye__second-iris"/>
          <path fill="#000" d="M324.9 159.073c2.817-2.957 29.217 8.979 38.825 32.663 9.514 23.467-.841 50.126-4.974 49.997-3.44-.106-.947-18.681-12.066-45.022-10.443-24.755-24.013-35.297-21.785-37.638Z" class="eye__second-pupil"/>
        </g>
        <g class="eye__third">
          <path fill="url(#f)" d="M490.882 200.41c4.316-31.586-11.753-59.865-35.89-63.163-24.138-3.298-47.204 19.634-51.519 51.22-4.316 31.586 11.753 59.865 35.891 63.163 24.137 3.298 47.203-19.634 51.518-51.22Z" class="eye__third-eyelid"/>
          <path fill="#000" d="M488.673 150.212c-7.115-9.978-16.682-16.816-27.653-19.768a5.495 5.495 0 0 1-4.093-5.174c-.1-3.41-1.37-6.58-3.481-8.697-1.717-1.722-3.922-2.669-6.268-2.669-5.433.059-9.719 5.321-9.754 11.983-.018 2.676.693 5.292 1.993 7.356.27.429.464.864.605 1.329l.071.212c5.756 16.105 7.044 36.131 3.634 56.394-3.705 21.996-12.765 42.264-24.866 55.606-.165.176-.306.37-.435.576a6.603 6.603 0 0 1-.441.606 14.56 14.56 0 0 0-1.853 2.828c-2.987 5.921-1.581 12.571 3.199 15.129a8.43 8.43 0 0 0 3.957.982c3.522 0 6.986-2.064 9.267-5.522a5.537 5.537 0 0 1 5.186-2.451c1.593.164 3.21.252 4.804.252 13.241 0 26.33-5.715 36.867-16.093 10.454-10.301 17.657-24.537 20.274-40.083 3.234-19.204-.782-38.443-11.013-52.79v-.006Z" class="eye__third-contour"/>
          <path fill="url(#g)" d="M492.771 203.096c4.822-28.635-10.396-55.03-33.986-58.957-.035 0-.07-.012-.106-.018-4.745-.776-8.731 3.592-7.643 8.273 2.863 12.283 3.333 26.7.799 41.747-2.816 16.711-8.873 31.499-16.728 42.659-2.811 3.992-.688 9.519 4.069 10.607a31.37 31.37 0 0 0 2.14.423c23.59 3.928 46.622-16.105 51.443-44.74l.012.006Z" class="eye__third-iris"/>
          <path fill="#000" d="M467.105 163.342c3.24-.641 15.147 19.351 10.466 39.29-4.639 19.756-23.907 32.445-26.583 30.458-2.222-1.653 8.074-12.672 12.995-35.05 4.622-21.027.559-34.192 3.122-34.698Z" class="eye__third-pupil"/>
        </g>
      </g>
      <g class="face__snout snout">
        <g class="snout__whisker rwhisker">
          <path fill="url(#h)" d="M368.341 393.81a206.327 206.327 0 0 0-36.532-37.613c-18.275-14.547-38.819-25.831-61.057-33.533a5.289 5.289 0 0 0-6.85 3.657l-4.986 18.992-17.375-7.044a5.314 5.314 0 0 0-4.592.294 5.293 5.293 0 0 0-2.623 3.781l-3.11 19.627-19.757-5.298a5.289 5.289 0 0 0-6.662 5.11v17.998l-16.028-4.769a5.29 5.29 0 1 0-3.017 10.143l22.826 6.792c1.6.476 3.334.17 4.675-.83a5.285 5.285 0 0 0 2.128-4.239v-18.192l18.769 5.033a5.29 5.29 0 0 0 6.597-4.281l2.987-18.857 16.781 6.803a5.284 5.284 0 0 0 7.103-3.557l5.039-19.204c19.039 7.215 36.697 17.246 52.555 29.864a195.55 195.55 0 0 1 28.835 28.294l-19.627 2.176a5.312 5.312 0 0 0-3.552 1.952 5.303 5.303 0 0 0-1.129 3.893l1.858 16.728-19.156-1.17a5.285 5.285 0 0 0-5.604 5.009l-.947 18.169-18.21-2.363a5.274 5.274 0 0 0-3.922 1.064 5.314 5.314 0 0 0-2.01 3.534l-2.135 17.328-17.645-2.382a5.286 5.286 0 0 0-5.951 4.534 5.285 5.285 0 0 0 4.534 5.95l22.949 3.099a5.303 5.303 0 0 0 3.945-1.053 5.324 5.324 0 0 0 2.023-3.545l2.14-17.358 18.598 2.417a5.28 5.28 0 0 0 4.069-1.182 5.285 5.285 0 0 0 1.899-3.792l.965-18.551 20.103 1.223a5.319 5.319 0 0 0 4.157-1.635 5.278 5.278 0 0 0 1.423-4.233l-1.97-17.717 23.831-2.646a5.308 5.308 0 0 0 4.275-3.157 5.273 5.273 0 0 0-.623-5.274l.006.011Z" class="rwhisker__big"/>
          <path fill="url(#i)" d="m280.66 380.998-.676 11.513-16.687-2.764a5.287 5.287 0 0 0-6.086 4.357 5.296 5.296 0 0 0 4.357 6.086l22.485 3.722a5.304 5.304 0 0 0 4.168-1.088 5.302 5.302 0 0 0 1.982-3.822l.723-12.353 16.117.147a5.303 5.303 0 0 0 5.345-5.31l-.036-13.265a5.288 5.288 0 0 0-5.291-5.274h-.018a5.284 5.284 0 0 0-5.274 5.309l.023 7.909-15.799-.147c-2.817-.035-5.169 2.164-5.333 4.98Z" class="rwhisker__small"/>
        </g>
        <g class="snout__whisker lwhisker">
          <path fill="url(#j)" d="M548.771 285.109a5.295 5.295 0 0 0-7.456-.659l-10.825 9.061-16.822-15.105a5.275 5.275 0 0 0-4.086-1.323 5.296 5.296 0 0 0-3.722 2.146l-10.578 14.5-17.887-12.854a5.287 5.287 0 0 0-7.45 1.3l-11.448 16.675-17.681-16.093a5.29 5.29 0 0 0-8.096 1.188 171.338 171.338 0 0 0-14.641 30.969c-8.009 22.573-11.166 46.475-9.391 71.041a5.3 5.3 0 0 0 2.364 4.039 5.272 5.272 0 0 0 4.639.582l19.063-6.591 8.755 16.411a5.292 5.292 0 0 0 7.92 1.687l15.894-12.371 11.277 14.759a5.286 5.286 0 0 0 3.705 2.052 5.286 5.286 0 0 0 4.027-1.323l13.977-12.507 11.572 13.106a5.291 5.291 0 0 0 6.979.847l18.863-13.053a5.288 5.288 0 0 0 1.34-7.362 5.287 5.287 0 0 0-7.361-1.34l-14.994 10.378-11.989-13.577a5.288 5.288 0 0 0-7.497-.441l-13.688 12.248-11.049-14.459a5.294 5.294 0 0 0-7.455-.964l-15.141 11.789-7.92-14.853a5.286 5.286 0 0 0-6.398-2.51l-16.693 5.768c-.67-20.662 2.411-40.754 9.173-59.822a160.068 160.068 0 0 1 10.507-23.432l17.305 15.747a5.283 5.283 0 0 0 4.169 1.34 5.28 5.28 0 0 0 3.751-2.263l11.825-17.223 17.763 12.766a5.295 5.295 0 0 0 7.361-1.176l10.225-14.012 15.876 14.259a5.296 5.296 0 0 0 6.933.123l14.341-12.007a5.293 5.293 0 0 0 .658-7.455l.006-.006Z" class="lwhisker__big"/>
          <path fill="url(#k)" d="m490.537 329.62-12.207 11.707-7.062-9.114a5.292 5.292 0 0 0-7.214-1.094l-12.954 9.049-4.451-6.538a5.287 5.287 0 0 0-7.35-1.394 5.287 5.287 0 0 0-1.393 7.35l7.467 10.966a5.306 5.306 0 0 0 3.416 2.229 5.269 5.269 0 0 0 3.987-.865l13.212-9.231 7.585 9.784a5.262 5.262 0 0 0 3.793 2.034c.129.012.258.012.388.012a5.277 5.277 0 0 0 3.663-1.476l16.446-15.781a5.283 5.283 0 0 0 .153-7.48 5.282 5.282 0 0 0-7.479-.152v-.006Z" class="lwhisker__small"/>
        </g>
        <path fill="url(#l)" d="M399.763 286.502c-2.905-.305-5.516 1.794-5.827 4.698a148.6 148.6 0 0 1-5.474 27.054 148.292 148.292 0 0 1-10.096 24.972 248.622 248.622 0 0 1-35.55-17.011 248.52 248.52 0 0 1-33.31-23.184 5.29 5.29 0 0 0-7.449.711 5.296 5.296 0 0 0 .711 7.45 258.985 258.985 0 0 0 34.733 24.178 258.936 258.936 0 0 0 39.224 18.557 216.05 216.05 0 0 1 4.704 14.659 216.652 216.652 0 0 1 4.887 21.485 5.29 5.29 0 0 0 5.209 4.386c.3 0 .606-.023.911-.082a5.285 5.285 0 0 0 4.305-6.121 227.449 227.449 0 0 0-5.122-22.544 229.465 229.465 0 0 0-4.968-15.487 158.846 158.846 0 0 0 11.948-28.917 159.42 159.42 0 0 0 5.868-28.988 5.295 5.295 0 0 0-4.698-5.827l-.006.011Z" class="snout__nose"/>
      </g>
    </g>
  </g>
  <defs>
    <radialGradient id="b" cx="0" cy="0" r="1" class="b" gradientTransform="matrix(225.99976 150.00042 -212.5789 320.2843 297 257.001)" gradientUnits="userSpaceOnUse">
      <stop stop-color="#7E2FFF" stop-opacity="0"/>
      <stop offset="1" stop-color="#7542CA"/>
    </radialGradient>
    <radialGradient id="c" cx="0" cy="0" r="1" class="c" gradientTransform="rotate(18.75 -653.847 635.216) scale(92.0027 80.09)" gradientUnits="userSpaceOnUse">
      <stop stop-color="#CF0"/>
      <stop offset=".766" stop-color="#83FF08"/>
    </radialGradient>
    <radialGradient id="d" cx="0" cy="0" r="1" class="d" gradientTransform="matrix(39.40912 58.66908 -49.03897 32.9404 324.986 198.879)" gradientUnits="userSpaceOnUse">
      <stop stop-color="#008CC8"/>
      <stop offset=".531" stop-color="#333DC2"/>
      <stop offset="1" stop-color="#510EBF"/>
    </radialGradient>
    <radialGradient id="e" cx="0" cy="0" r="1" class="e" gradientTransform="matrix(0 61.0139 -48.736 0 337.004 199.091)" gradientUnits="userSpaceOnUse">
      <stop stop-color="#CF0"/>
      <stop offset=".766" stop-color="#83FF08"/>
    </radialGradient>
    <radialGradient id="f" cx="0" cy="0" r="1" class="f" gradientTransform="matrix(43.70487 5.97128 -7.81393 57.19157 447.178 194.439)" gradientUnits="userSpaceOnUse">
      <stop stop-color="#008CC8"/>
      <stop offset=".531" stop-color="#333DC2"/>
      <stop offset="1" stop-color="#510EBF"/>
    </radialGradient>
    <radialGradient id="g" cx="0" cy="0" r="1" class="g" gradientTransform="matrix(0 52.1456 -29.9079 0 463.755 196.176)" gradientUnits="userSpaceOnUse">
      <stop stop-color="#CF0"/>
      <stop offset=".766" stop-color="#83FF08"/>
    </radialGradient>
    <linearGradient id="h" x1="224" x2="328.491" y1="427.5" y2="358.623" class="h" gradientUnits="userSpaceOnUse">
      <stop stop-color="#3D6B00"/>
      <stop offset=".185" stop-color="#032600"/>
      <stop offset=".474"/>
    </linearGradient>
    <linearGradient id="i" x1="269.529" x2="299.164" y1="392.1" y2="371.336" class="i" gradientUnits="userSpaceOnUse">
      <stop stop-color="#3D6B00"/>
      <stop offset=".185" stop-color="#032600"/>
      <stop offset=".474"/>
    </linearGradient>
    <linearGradient id="j" x1="533" x2="409.414" y1="335.5" y2="337.17" class="j" gradientUnits="userSpaceOnUse">
      <stop stop-color="#3D6B00"/>
      <stop offset=".185" stop-color="#032600"/>
      <stop offset=".474"/>
    </linearGradient>
    <linearGradient id="k" x1="491.999" x2="437.555" y1="339.954" y2="341.559" class="k" gradientUnits="userSpaceOnUse">
      <stop stop-color="#3D6B00"/>
      <stop offset=".185" stop-color="#032600"/>
      <stop offset=".474"/>
    </linearGradient>
    <linearGradient id="l" x1="364" x2="377" y1="286" y2="399" class="l" gradientUnits="userSpaceOnUse">
      <stop stop-color="#3D6B00"/>
      <stop offset=".185" stop-color="#032600"/>
      <stop offset=".474"/>
    </linearGradient>
    <filter id="a" width="517.804" height="445.026" x="-8" y="-8" class="a" color-interpolation-filters="sRGB" filterUnits="userSpaceOnUse">
      <feFlood flood-opacity="0" result="BackgroundImageFix"/>
      <feGaussianBlur in="BackgroundImageFix" stdDeviation="4"/>
      <feComposite in2="SourceAlpha" operator="in" result="effect1_backgroundBlur_43_108"/>
      <feBlend in="SourceGraphic" in2="effect1_backgroundBlur_43_108" result="shape"/>
      <feColorMatrix in="SourceAlpha" result="hardAlpha" values="0 0 0 0 0 0 0 0 0 0 0 0 0 0 0 0 0 0 127 0"/>
      <feOffset/>
      <feGaussianBlur stdDeviation="15.6"/>
      <feComposite in2="hardAlpha" k2="-1" k3="1" operator="arithmetic"/>
      <feColorMatrix values="0 0 0 0 0.603812 0 0 0 0 0.3625 0 0 0 0 1 0 0 0 1 0"/>
      <feBlend in2="shape" result="effect2_innerShadow_43_108"/>
    </filter>
  </defs>
</svg>
