<?xml version="1.0" encoding="UTF-8"?>
<svg id="Capa_2" data-name="Capa 2" xmlns="http://www.w3.org/2000/svg" viewBox="0 0 86.84 86.84">
  <defs>
    <style>
      .cls-1 {
        fill: #a7fe2f;
      }
    </style>
  </defs>
  <g id="adornos">
    <g id="smiley">
      <g id="circle">
        <path class="cls-1" d="m67.57,79.52c-19.91,13.32-46.93,7.96-60.25-11.95C-6,47.67-.64,20.64,19.27,7.32c19.91-13.32,46.94-7.96,60.25,11.95,13.32,19.91,7.96,46.94-11.95,60.25ZM20.94,9.81C2.41,22.21-2.58,47.37,9.81,65.9c12.4,18.53,37.56,23.52,56.09,11.13,18.53-12.4,23.52-37.56,11.13-56.09C64.63,2.41,39.47-2.58,20.94,9.81Z"/>
      </g>
      <g id="eyes">
        <ellipse class="cls-1" cx="26.65" cy="43.78" rx="3.22" ry="11.82" transform="translate(-19.85 22.21) rotate(-33.78)"/>
        <ellipse class="cls-1" cx="38.4" cy="35.92" rx="3.22" ry="11.82" transform="translate(-13.49 27.42) rotate(-33.78)"/>
        <ellipse class="cls-1" cx="50.16" cy="28.06" rx="3.22" ry="11.82" transform="translate(-7.13 32.63) rotate(-33.78)"/>
      </g>
      <g id="smile">
        <path class="cls-1" d="m53.45,58.42c-9.19,6.15-18.7,5.47-22.43,4.87-.82-.13-1.38-.9-1.24-1.72.13-.82.9-1.38,1.72-1.24,3.46.55,12.43,1.14,20.94-4.85,7.84-5.57,10.42-13.48,11.17-16.63.19-.81,1-1.3,1.8-1.11.81.19,1.3,1,1.11,1.8-.82,3.48-3.67,12.22-12.35,18.38-.24.17-.48.33-.72.49Z"/>
      </g>
    </g>
  </g>
</svg>