<?xml version="1.0" encoding="UTF-8"?>
<svg id="Capa_2" data-name="Capa 2" xmlns="http://www.w3.org/2000/svg" xmlns:xlink="http://www.w3.org/1999/xlink" viewBox="0 0 342.06 251.28">
  <defs>
    <style>
      .cls-1 {
        stroke-width: 17.28px;
      }

      .cls-1, .cls-2 {
        stroke-linejoin: round;
      }

      .cls-1, .cls-2, .cls-3 {
        fill: none;
        stroke: #000;
      }

      .cls-4 {
        fill: url(#Degradado_sin_nombre_1346-3);
      }

      .cls-4, .cls-5, .cls-6, .cls-7, .cls-8, .cls-9, .cls-10, .cls-11, .cls-12, .cls-13, .cls-14 {
        stroke-width: 0px;
      }

      .cls-5 {
        fill: url(#Degradado_sin_nombre_1347-2);
      }

      .cls-7 {
        fill: url(#Degradado_sin_nombre_1345);
      }

      .cls-8 {
        fill: url(#Degradado_sin_nombre_1344);
      }

      .cls-2 {
        stroke-width: 14.3px;
      }

      .cls-9 {
        fill: url(#Degradado_sin_nombre_1343);
      }

      .cls-10 {
        fill: url(#Degradado_sin_nombre_1344-2);
      }

      .cls-11 {
        fill: url(#Degradado_sin_nombre_1345-2);
      }

      .cls-12 {
        fill: url(#Degradado_sin_nombre_1347);
      }

      .cls-3 {
        stroke-miterlimit: 10;
        stroke-width: 17.28px;
      }

      .cls-13 {
        fill: url(#Degradado_sin_nombre_1346-2);
      }

      .cls-14 {
        fill: url(#Degradado_sin_nombre_1346);
      }
    </style>
    <radialGradient id="Degradado_sin_nombre_1347" data-name="Degradado sin nombre 1347" cx="158.95" cy="779.24" fx="158.95" fy="779.24" r="45.15" gradientTransform="translate(406.99 -700.87) rotate(27.65)" gradientUnits="userSpaceOnUse">
      <stop offset="0" stop-color="#db57ff"/>
      <stop offset=".11" stop-color="#d353fb"/>
      <stop offset=".28" stop-color="#c04bf0"/>
      <stop offset=".48" stop-color="#a03cde"/>
      <stop offset=".7" stop-color="#762ac7"/>
    </radialGradient>
    <radialGradient id="Degradado_sin_nombre_1347-2" data-name="Degradado sin nombre 1347" cx="270.8" cy="60.05" fx="270.8" fy="60.05" r="35.61" gradientTransform="translate(293.64 -216.38) rotate(82.22)" xlink:href="#Degradado_sin_nombre_1347"/>
    <radialGradient id="Degradado_sin_nombre_1346" data-name="Degradado sin nombre 1346" cx="78.34" cy="94.33" fx="70.73" fy="94.33" r="59.79" gradientTransform="translate(142.48 -10.18) rotate(71.25)" gradientUnits="userSpaceOnUse">
      <stop offset="0" stop-color="#c4ff00"/>
      <stop offset=".21" stop-color="#bcff00"/>
      <stop offset=".52" stop-color="#a9ff00"/>
      <stop offset=".82" stop-color="#91ff00"/>
    </radialGradient>
    <radialGradient id="Degradado_sin_nombre_1346-2" data-name="Degradado sin nombre 1346" cx="168.73" cy="780.11" fx="168.73" fy="780.11" r="37.96" gradientTransform="translate(-56.51 -694.24) rotate(-6.23)" xlink:href="#Degradado_sin_nombre_1346"/>
    <radialGradient id="Degradado_sin_nombre_1346-3" data-name="Degradado sin nombre 1346" cx="282.29" cy="61.26" fx="282.29" fy="61.26" r="29.46" gradientTransform="matrix(1,0,0,1,0,0)" xlink:href="#Degradado_sin_nombre_1346"/>
    <linearGradient id="Degradado_sin_nombre_1345" data-name="Degradado sin nombre 1345" x1="118.91" y1="227.6" x2="183.24" y2="163.27" gradientUnits="userSpaceOnUse">
      <stop offset="0" stop-color="#004f29"/>
      <stop offset=".19" stop-color="#002e18"/>
      <stop offset=".39" stop-color="#00150a"/>
      <stop offset=".57" stop-color="#000502"/>
      <stop offset=".71" stop-color="#000"/>
    </linearGradient>
    <linearGradient id="Degradado_sin_nombre_1345-2" data-name="Degradado sin nombre 1345" x1="145.57" y1="207.03" x2="175.49" y2="177.11" xlink:href="#Degradado_sin_nombre_1345"/>
    <linearGradient id="Degradado_sin_nombre_1344" data-name="Degradado sin nombre 1344" x1="243.78" y1="162.54" x2="342.06" y2="162.54" gradientUnits="userSpaceOnUse">
      <stop offset=".12" stop-color="#000"/>
      <stop offset=".29" stop-color="#000502"/>
      <stop offset=".51" stop-color="#00140a"/>
      <stop offset=".76" stop-color="#002e17"/>
      <stop offset="1" stop-color="#004f29"/>
    </linearGradient>
    <linearGradient id="Degradado_sin_nombre_1344-2" data-name="Degradado sin nombre 1344" x1="263.73" y1="161.85" x2="307.05" y2="161.85" xlink:href="#Degradado_sin_nombre_1344"/>
    <linearGradient id="Degradado_sin_nombre_1343" data-name="Degradado sin nombre 1343" x1="202.22" y1="122.96" x2="221.74" y2="192.09" gradientUnits="userSpaceOnUse">
      <stop offset="0" stop-color="#004f29"/>
      <stop offset=".15" stop-color="#002e18"/>
      <stop offset=".3" stop-color="#00150a"/>
      <stop offset=".44" stop-color="#000502"/>
      <stop offset=".55" stop-color="#000"/>
    </linearGradient>
  </defs>
  <g id="logo__nobody__green">
    <g>
      <ellipse class="cls-12" cx="186.11" cy="63.14" rx="40.94" ry="48.98" transform="translate(-3.59 114.5) rotate(-33.89)"/>
      <ellipse class="cls-5" cx="270.8" cy="60.05" rx="40.01" ry="30.57" transform="translate(174.64 320.23) rotate(-82.22)"/>
      <g>
        <path class="cls-6" d="m82.63,153.41c-6.3,0-12.65-.8-18.87-2.37-17.84-4.5-32.99-14.9-42.65-29.28-9.25-13.76-12.27-29.52-8.52-44.37.35-1.38.76-2.76,1.22-4.1,2.15-6.23.79-13.14-3.55-18.1-1.27-1.46-2.13-3.72-1.17-5.49.71-1.32,2.3-2.14,4.15-2.14,1.02,0,2.1.24,3.12.69,2.39,1.07,4.94,1.59,7.48,1.59,3.73,0,7.43-1.13,10.58-3.35,11.18-7.86,24.77-12.02,39.31-12.02,6.3,0,12.65.8,18.87,2.37,35.16,8.88,58.29,41.19,51.56,72.02-1.31,6.02.47,12.3,4.76,16.72,1.71,1.77,2.3,4.14,1.42,5.76-.71,1.32-2.3,2.14-4.15,2.14-.63,0-1.27-.09-1.92-.27-1.59-.43-3.22-.65-4.83-.65-4.44,0-8.79,1.61-12.2,4.63-11.78,10.44-27.62,16.19-44.6,16.19h0Z"/>
        <path class="cls-3" d="m82.63,153.41c-6.3,0-12.65-.8-18.87-2.37-17.84-4.5-32.99-14.9-42.65-29.28-9.25-13.76-12.27-29.52-8.52-44.37.35-1.38.76-2.76,1.22-4.1,2.15-6.23.79-13.14-3.55-18.1-1.27-1.46-2.13-3.72-1.17-5.49.71-1.32,2.3-2.14,4.15-2.14,1.02,0,2.1.24,3.12.69,2.39,1.07,4.94,1.59,7.48,1.59,3.73,0,7.43-1.13,10.58-3.35,11.18-7.86,24.77-12.02,39.31-12.02,6.3,0,12.65.8,18.87,2.37,35.16,8.88,58.29,41.19,51.56,72.02-1.31,6.02.47,12.3,4.76,16.72,1.71,1.77,2.3,4.14,1.42,5.76-.71,1.32-2.3,2.14-4.15,2.14-.63,0-1.27-.09-1.92-.27-1.59-.43-3.22-.65-4.83-.65-4.44,0-8.79,1.61-12.2,4.63-11.78,10.44-27.62,16.19-44.6,16.19h0Z"/>
      </g>
      <g>
        <path class="cls-6" d="m204.43,120.72c-2.38,0-4.54-2.15-5.24-5.23-.14-.6-.21-1.19-.21-1.75,0-.44-.02-.87-.06-1.31.85-15.78-4.09-33.55-13.9-50.03-8.7-14.59-20.41-26.58-33-33.76-1.02-.58-2.09-1.07-3.19-1.47-1.19-.43-2.31-1.22-3.24-2.31-1.08-1.27-1.76-2.85-1.85-4.32-.1-1.54.36-2.75,1.35-3.6.67-.57,1.61-.9,2.58-.9s1.99.28,2.94.81c3.01,1.69,6.38,2.55,9.77,2.55,2.1,0,4.21-.33,6.25-1,3.93-1.29,8.06-1.95,12.26-1.95,16.87,0,33.35,10.08,43.02,26.31,12.7,21.32,9.9,47.82-6.51,61.65-3.65,3.08-6.08,7.36-6.85,12.07-.09.57-.25,1.1-.46,1.58-.62,1.41-1.59,2.27-2.86,2.56-.26.06-.54.09-.8.09Z"/>
        <path class="cls-1" d="m204.43,120.72c-2.38,0-4.54-2.15-5.24-5.23-.14-.6-.21-1.19-.21-1.75,0-.44-.02-.87-.06-1.31.85-15.78-4.09-33.55-13.9-50.03-8.7-14.59-20.41-26.58-33-33.76-1.02-.58-2.09-1.07-3.19-1.47-1.19-.43-2.31-1.22-3.24-2.31-1.08-1.27-1.76-2.85-1.85-4.32-.1-1.54.36-2.75,1.35-3.6.67-.57,1.61-.9,2.58-.9s1.99.28,2.94.81c3.01,1.69,6.38,2.55,9.77,2.55,2.1,0,4.21-.33,6.25-1,3.93-1.29,8.06-1.95,12.26-1.95,16.87,0,33.35,10.08,43.02,26.31,12.7,21.32,9.9,47.82-6.51,61.65-3.65,3.08-6.08,7.36-6.85,12.07-.09.57-.25,1.1-.46,1.58-.62,1.41-1.59,2.27-2.86,2.56-.26.06-.54.09-.8.09Z"/>
      </g>
      <g>
        <path class="cls-6" d="m254.24,107.36c-.48,0-.96-.12-1.37-.34-1.91-1.02-2.34-3.92-.99-6.6.23-.46.5-.89.8-1.26.23-.28.44-.57.65-.87,8.88-9.79,15.25-24,17.95-40.01,2.4-14.24,1.54-28.42-2.43-39.92-.3-.88-.68-1.73-1.13-2.55-.51-.94-.78-2.06-.77-3.24.02-3.01,1.72-5.39,3.88-5.41h0c.85,0,1.59.33,2.25.99.49.49.9,1.17,1.17,1.95,1.55,4.38,4.88,7.91,9.16,9.72,5.36,2.26,10.12,6.16,13.77,11.28,6.65,9.32,9.24,21.86,7.13,34.41-3.53,20.97-18.84,36.32-36.41,36.5-3.99.04-7.82,1.52-10.81,4.16-.61.54-1.61,1.19-2.86,1.19Z"/>
        <path class="cls-2" d="m254.24,107.36c-.48,0-.96-.12-1.37-.34-1.91-1.02-2.34-3.92-.99-6.6.23-.46.5-.89.8-1.26.23-.28.44-.57.65-.87,8.88-9.79,15.25-24,17.95-40.01,2.4-14.24,1.54-28.42-2.43-39.92-.3-.88-.68-1.73-1.13-2.55-.51-.94-.78-2.06-.77-3.24.02-3.01,1.72-5.39,3.88-5.41h0c.85,0,1.59.33,2.25.99.49.49.9,1.17,1.17,1.95,1.55,4.38,4.88,7.91,9.16,9.72,5.36,2.26,10.12,6.16,13.77,11.28,6.65,9.32,9.24,21.86,7.13,34.41-3.53,20.97-18.84,36.32-36.41,36.5-3.99.04-7.82,1.52-10.81,4.16-.61.54-1.61,1.19-2.86,1.19Z"/>
      </g>
      <ellipse class="cls-14" cx="78.34" cy="94.33" rx="55.51" ry="63.76" transform="translate(-36.16 138.19) rotate(-71.25)"/>
      <path class="cls-13" d="m221.02,44.64c-12.74-21.38-38-29.81-56.42-18.84-.65.39-1.28.79-1.89,1.21-2.71,1.87-2.72,5.9,0,7.75,9.3,6.37,18.16,15.78,25.15,27.52,7.74,13,11.89,26.66,12.5,38.79.17,3.29,3.58,5.4,6.6,4.08,1.28-.56,2.54-1.2,3.77-1.93,18.43-10.98,23.04-37.21,10.3-58.59Z"/>
      <path class="cls-4" d="m302.4,66.05c3.34-19.85-7.2-38.14-23.55-40.86-.02,0-.05,0-.07-.01-3.29-.54-6.05,2.49-5.3,5.73,1.99,8.51,2.31,18.51.55,28.93-1.95,11.58-6.15,21.83-11.59,29.57-1.95,2.77-.48,6.6,2.82,7.35.49.11.98.21,1.48.29,16.35,2.72,32.31-11.16,35.65-31.01Z"/>
      <path class="cls-6" d="m63.65,51.2c-4.54.62-8.27,23.32-.07,44.26,7.93,20.26,25.84,35.91,29.81,34.05,2.46-1.15-2.21-13.65-11.67-38.61-10.12-26.73-15.24-40.09-18.07-39.7Z"/>
      <path class="cls-6" d="m186.05,35.54c1.95-2.05,20.25,6.22,26.91,22.64,6.59,16.26-.58,34.74-3.45,34.65-2.38-.07-.66-12.95-8.36-31.2-7.24-17.15-16.64-24.46-15.1-26.08Z"/>
      <path class="cls-6" d="m284.61,38.5c2.25-.44,10.5,13.41,7.25,27.23-3.21,13.69-16.57,22.49-18.42,21.11-1.54-1.15,5.6-8.78,9.01-24.29,3.2-14.57.39-23.7,2.16-24.05Z"/>
      <g>
        <path class="cls-7" d="m157.86,251.28c-.16,0-.33-.01-.49-.03l-15.91-2.15c-2.01-.27-3.41-2.12-3.14-4.13.27-2.01,2.12-3.42,4.13-3.14l12.23,1.65,1.48-12.01c.12-.97.62-1.85,1.39-2.45.77-.6,1.75-.87,2.72-.74l12.62,1.64.65-12.59c.05-.98.49-1.89,1.22-2.55.73-.65,1.69-.98,2.67-.93l13.28.81-1.29-11.59c-.11-.97.17-1.94.78-2.7.61-.76,1.49-1.25,2.46-1.35l13.6-1.51c-5.97-7.22-12.67-13.79-19.98-19.61-10.99-8.74-23.23-15.7-36.42-20.7l-3.49,13.31c-.27,1.02-.96,1.88-1.9,2.35s-2.04.52-3.02.12l-11.63-4.71-2.07,13.07c-.16,1.03-.75,1.94-1.63,2.5-.87.57-1.94.74-2.95.47l-13.01-3.49v12.61c0,1.16-.55,2.25-1.47,2.94-.93.69-2.13.91-3.24.58l-15.82-4.71c-1.94-.58-3.05-2.62-2.47-4.56.58-1.94,2.62-3.05,4.56-2.47l11.11,3.3v-12.47c0-1.14.53-2.22,1.44-2.91.9-.69,2.08-.93,3.18-.63l13.69,3.67,2.16-13.6c.18-1.1.84-2.07,1.82-2.62.97-.55,2.15-.62,3.18-.21l12.04,4.88,3.45-13.16c.26-.99.92-1.82,1.82-2.3.9-.48,1.96-.56,2.93-.23,15.41,5.34,29.65,13.16,42.31,23.24,9.49,7.55,18.01,16.32,25.32,26.07.79,1.05.95,2.45.43,3.66s-1.65,2.04-2.96,2.19l-16.52,1.83,1.36,12.28c.12,1.08-.24,2.15-.99,2.93-.75.78-1.8,1.19-2.88,1.13l-13.93-.85-.67,12.86c-.05,1.02-.53,1.97-1.31,2.63-.79.65-1.81.95-2.82.82l-12.89-1.67-1.48,12.03c-.12.97-.62,1.86-1.4,2.46-.65.5-1.43.76-2.24.76Z"/>
        <path class="cls-11" d="m158.35,205.28c-.2,0-.4-.02-.6-.05l-15.58-2.58c-2-.33-3.35-2.22-3.02-4.22.33-2,2.22-3.35,4.22-3.02l11.56,1.91.47-7.98c.11-1.95,1.74-3.48,3.69-3.45l10.95.1-.02-5.48c0-2.03,1.63-3.67,3.66-3.68h.01c2.02,0,3.66,1.64,3.67,3.66l.03,9.19c0,.98-.39,1.92-1.08,2.61-.7.69-1.64,1.07-2.62,1.07l-11.17-.1-.5,8.56c-.06,1.04-.56,2-1.37,2.65-.65.52-1.46.8-2.29.8Z"/>
      </g>
      <g>
        <path class="cls-8" d="m318.39,207.78c-1.02,0-2.03-.42-2.75-1.24l-8.02-9.08-9.69,8.67c-.76.68-1.77,1.02-2.79.92-1.02-.1-1.95-.61-2.57-1.42l-7.82-10.23-11.01,8.58c-.85.66-1.96.92-3.02.69-1.06-.23-1.96-.91-2.47-1.86l-6.07-11.37-13.21,4.57c-1.08.37-2.27.22-3.22-.4-.95-.63-1.56-1.66-1.64-2.8-1.23-17.02.96-33.59,6.51-49.23,2.64-7.43,6.05-14.65,10.15-21.46.57-.94,1.52-1.58,2.61-1.74,1.09-.16,2.19.18,3,.92l12.26,11.15,7.94-11.56c.56-.81,1.42-1.37,2.39-1.54.97-.17,1.97.06,2.77.63l12.4,8.91,7.33-10.05c.61-.84,1.55-1.38,2.58-1.49,1.03-.11,2.06.23,2.83.92l11.66,10.47,7.5-6.28c1.55-1.3,3.87-1.1,5.17.46,1.3,1.55,1.1,3.87-.46,5.17l-9.94,8.32c-1.4,1.17-3.45,1.14-4.8-.08l-11-9.88-7.09,9.71c-1.19,1.63-3.47,1.99-5.1.82l-12.31-8.85-8.2,11.94c-.6.87-1.55,1.45-2.6,1.57-1.05.12-2.11-.22-2.89-.93l-11.99-10.91c-2.86,5.22-5.31,10.67-7.28,16.24-4.69,13.21-6.82,27.14-6.36,41.46l11.57-4c1.71-.59,3.59.15,4.43,1.74l5.49,10.29,10.49-8.17c.77-.6,1.75-.87,2.72-.74.97.12,1.85.63,2.44,1.41l7.66,10.02,9.49-8.49c.73-.65,1.69-.99,2.66-.93.97.06,1.89.5,2.53,1.23l8.31,9.41,10.39-7.19c1.67-1.15,3.95-.74,5.1.93,1.15,1.67.74,3.95-.93,5.1l-13.07,9.05c-.63.44-1.36.65-2.09.65Z"/>
        <path class="cls-10" d="m291.99,170.99c-.09,0-.18,0-.27,0-1.04-.08-1.99-.59-2.63-1.41l-5.26-6.78-9.16,6.4c-.8.56-1.8.78-2.76.6-.96-.18-1.82-.73-2.37-1.54l-5.17-7.6c-1.14-1.67-.71-3.96.97-5.1,1.67-1.14,3.96-.71,5.1.97l3.09,4.53,8.98-6.27c1.6-1.12,3.8-.79,5,.76l4.9,6.32,8.46-8.11c1.46-1.4,3.78-1.35,5.19.11,1.4,1.46,1.35,3.78-.11,5.19l-11.4,10.94c-.69.66-1.6,1.02-2.54,1.02Z"/>
      </g>
      <path class="cls-9" d="m231.82,198.27c-1.75,0-3.3-1.26-3.61-3.04-.87-5-2.01-10.01-3.38-14.89-.96-3.41-2.05-6.82-3.26-10.16-9.39-3.51-18.53-7.83-27.19-12.86-8.44-4.9-16.54-10.54-24.07-16.76-1.56-1.29-1.78-3.6-.49-5.16,1.29-1.56,3.6-1.78,5.16-.49,7.22,5.96,14.99,11.37,23.09,16.07,7.86,4.56,16.14,8.52,24.64,11.79,2.85-5.54,5.2-11.35,7-17.31,1.84-6.1,3.12-12.41,3.79-18.75.22-2.01,2.02-3.47,4.04-3.26,2.01.22,3.47,2.02,3.26,4.04-.73,6.8-2.09,13.55-4.07,20.09-2.09,6.92-4.87,13.65-8.28,20.04,1.27,3.53,2.43,7.13,3.45,10.73,1.44,5.12,2.64,10.38,3.55,15.62.35,2-.99,3.89-2.98,4.24-.21.04-.42.06-.63.06Z"/>
    </g>
  </g>
</svg>