<?xml version="1.0" encoding="UTF-8"?>
<svg id="Capa_2" data-name="Capa 2" xmlns="http://www.w3.org/2000/svg" viewBox="0 0 107.08 78.08">
  <defs>
    <style>
      .cls-1 {
        fill: #a7fe2f;
        stroke-width: 0px;
      }
    </style>
  </defs>
  <g id="logo_white">
    <g>
      <path class="cls-1" d="m24.53,47.94c-1.89,0-3.8-.22-5.67-.65-5.79-1.33-10.8-4.55-14.08-9.06C1.47,33.69.29,28.37,1.46,23.27c.27-1.18.67-2.34,1.17-3.43.19-.4.2-.87.05-1.28s-.47-.75-.88-.93c-.06-.02-.11-.05-.17-.08-1.38-.71-2.01-2.14-1.43-3.26.31-.61.96-1.02,1.72-1.1.1,0,.19-.01.29-.01.49,0,1,.13,1.47.37.31.16.6.36.83.6.31.31.72.47,1.16.47.06,0,.11,0,.17,0,.36-.04.69-.18.95-.43.34-.31.7-.62,1.07-.91,3.2-2.54,7.2-4.12,11.54-4.57.82-.08,1.66-.13,2.5-.13,1.89,0,3.8.22,5.67.65,5.79,1.33,10.8,4.55,14.08,9.06,3.31,4.55,4.49,9.86,3.32,14.96-.11.47-.24.94-.38,1.4-.26.81.14,1.69.92,2.03.07.03.14.06.21.1.62.32,1.12.81,1.4,1.38.31.63.32,1.32.03,1.88-.31.61-.96,1.02-1.72,1.1-.1,0-.19.01-.29.01-.49,0-1-.13-1.47-.37-.13-.07-.26-.15-.38-.23-.28-.19-.6-.29-.93-.29-.06,0-.11,0-.17,0-.42.04-.81.24-1.08.56-.76.87-1.61,1.69-2.54,2.42-3.2,2.54-7.19,4.12-11.53,4.56h-.01c-.82.09-1.66.13-2.5.13Zm-2.47-37.79c-9.34,0-17.14,5.6-18.98,13.62-2.23,9.73,5.02,19.73,16.17,22.29,1.75.4,3.52.6,5.29.6,9.34,0,17.14-5.6,18.98-13.62,2.23-9.73-5.02-19.73-16.17-22.29-1.75-.4-3.52-.6-5.29-.6Z"/>
      <path class="cls-1" d="m63.16,37.73c-1.11,0-2.11-.96-2.38-2.29-.05-.27-.08-.54-.07-.8,0-.08,0-.17,0-.25,0-.04,0-.09,0-.13.37-4.82-1.08-10.52-3.97-15.65-2.67-4.72-6.32-8.6-10.28-10.9,0,0-.02-.01-.03-.02-.14-.09-.29-.16-.45-.21-.55-.17-1.08-.54-1.48-1.04-.44-.54-.7-1.19-.72-1.83-.03-.7.24-1.34.73-1.74.3-.24.67-.39,1.07-.42.06,0,.13,0,.19,0,.77,0,1.54.38,2.13,1.04.35.4.87.63,1.4.63.05,0,.11,0,.16,0,.21-.02.42-.07.61-.16,1.33-.6,2.75-.97,4.23-1.1.39-.03.78-.05,1.17-.05,2.56,0,5.18.72,7.57,2.09,2.83,1.61,5.21,4.03,6.89,7,2.19,3.87,2.94,8.26,2.13,12.34-.77,3.86-2.88,7.06-5.95,9.01-.58.37-.91,1.03-.86,1.73.11,1.35-.61,2.5-1.71,2.73-.07.01-.14.02-.22.03-.05,0-.11,0-.16,0h0Zm-6.61-33.12c-2.02,0-3.91.49-5.62,1.46-.21.12-.43.25-.64.39-.52.34-.84.92-.86,1.55-.01.62.28,1.21.78,1.57,2.99,2.15,5.66,5.21,7.71,8.84,2.25,3.98,3.55,8.35,3.65,12.29.03,1.02.88,1.84,1.89,1.84.25,0,.49-.05.72-.14.43-.18.85-.38,1.26-.61,6.14-3.47,7.87-12.06,3.87-19.15-2.8-4.96-7.7-8.04-12.78-8.04Z"/>
      <path class="cls-1" d="m79.43,33.07c-.24,0-.48-.06-.69-.17-.87-.47-1.11-1.71-.54-2.83.1-.2.22-.39.36-.55.05-.06.09-.11.13-.18.02-.03.04-.05.06-.07,2.73-3.01,4.76-7.56,5.6-12.5.77-4.55.47-9.05-.82-12.67,0,0,0-.02,0-.03-.04-.14-.1-.27-.18-.39-.25-.4-.38-.9-.38-1.42,0-1.26.79-2.25,1.77-2.26.41,0,.8.17,1.11.48.4.4.64,1,.66,1.66.02.72.5,1.32,1.19,1.51,2.34.63,4.38,2.09,5.9,4.22,2.2,3.09,3.07,7.24,2.37,11.39-.57,3.36-2.12,6.43-4.37,8.66-2.26,2.22-5.06,3.45-7.89,3.45h0c-.34,0-.68-.02-1.01-.05-.06,0-.11,0-.17,0-.54,0-1.04.27-1.34.72-.43.65-1.1,1.05-1.73,1.05Zm7.59-27.19c-.57,0-1.1.26-1.47.72-.36.46-.5,1.05-.36,1.61.65,2.77.71,5.91.17,9.08-.6,3.54-1.85,6.74-3.63,9.28-.37.52-.45,1.19-.22,1.78.23.59.73,1.03,1.36,1.17.16.04.33.07.5.1.45.08.92.11,1.38.11,4.97,0,9.46-4.44,10.45-10.33.6-3.54-.14-7.09-2.02-9.72-1.46-2.05-3.53-3.39-5.82-3.77h-.03c-.1-.02-.2-.03-.3-.03Z"/>
      <path class="cls-1" d="m26.91,39.44c-.66-.44-1.6-1.22-2.72-2.45-1.13-1.25-3.24-3.85-4.57-7.25-1.35-3.45-1.49-6.69-1.46-8.32.03-1.69.27-2.89.5-3.6.98,1.82,2.73,6.45,4.57,11.3,1.61,4.26,3.16,8.33,3.67,10.32Z"/>
      <path class="cls-1" d="m65.39,25.37c-.22-1.82-.63-4.53-1.91-7.77-1.14-2.88-2.48-4.95-3.45-6.34.43.25.92.58,1.42.97,1.27,1,2.97,2.69,3.88,5.1.71,1.87.88,4.12.48,6.33-.12.66-.27,1.23-.42,1.7Z"/>
      <path class="cls-1" d="m87.25,24.16c.66-1.31,1.51-3.21,2.07-5.74.49-2.25.56-4.11.54-5.45.65,1.49,1.22,3.8.69,6.07-.53,2.27-2.07,4.09-3.3,5.13Z"/>
      <g>
        <path class="cls-1" d="m48.66,78.08s-.07,0-.1,0l-5.08-.69c-.21-.03-.39-.13-.52-.3-.13-.17-.18-.37-.15-.58.05-.39.38-.68.77-.68.04,0,.07,0,.11,0l4.3.58.52-4.23c.03-.2.13-.39.3-.52.14-.11.31-.16.48-.16.03,0,.07,0,.1,0l4.45.58.23-4.44c.01-.21.11-.4.26-.54.14-.13.33-.2.52-.2.02,0,.03,0,.05,0l4.7.29-.46-4.16c-.02-.21.04-.41.17-.57.13-.16.32-.27.52-.29l5.06-.56-.46-.56c-1.92-2.32-4.09-4.45-6.44-6.32-3.54-2.81-7.48-5.06-11.73-6.67l-.41-.15-1.23,4.67c-.06.22-.2.4-.41.5-.11.05-.23.08-.35.08-.1,0-.2-.02-.29-.06l-4.17-1.69-.74,4.66c-.03.22-.16.41-.35.53-.13.08-.27.13-.43.13-.07,0-.14,0-.2-.03l-4.64-1.25v4.53c0,.25-.12.48-.31.63-.13.1-.3.15-.47.15-.08,0-.15-.01-.22-.03l-5.05-1.5c-.2-.06-.36-.19-.46-.38-.1-.18-.12-.39-.06-.59.1-.33.41-.56.75-.56.08,0,.15.01.22.03l4.05,1.2v-4.5c0-.24.11-.47.31-.62.14-.1.3-.16.48-.16.07,0,.14,0,.2.03l4.79,1.28.76-4.77c.04-.24.18-.44.39-.56.12-.07.25-.1.38-.1.1,0,.2.02.29.06l4.26,1.73,1.22-4.63c.06-.21.2-.39.39-.49.11-.06.24-.09.37-.09.09,0,.17.01.26.04,4.88,1.69,9.38,4.17,13.39,7.36,3,2.39,5.7,5.17,8.01,8.25.17.22.2.52.09.78-.11.26-.35.43-.63.47l-5.66.63.48,4.31c.03.23-.05.46-.21.62-.15.15-.35.24-.57.24-.02,0-.03,0-.05,0l-4.84-.3-.23,4.5c-.01.22-.11.42-.28.56-.14.12-.32.18-.5.18-.03,0-.07,0-.1,0l-4.51-.59-.52,4.23c-.03.21-.13.4-.3.52-.14.1-.31.16-.48.16Z"/>
        <path class="cls-1" d="m48.82,63.4s-.09,0-.13-.01l-4.98-.82c-.42-.07-.71-.47-.64-.9.06-.38.39-.65.77-.65.04,0,.09,0,.13.01l4.12.68.18-2.98c.02-.41.37-.73.78-.73l3.9.04v-2.14c0-.43.34-.78.77-.78.43,0,.78.35.78.78v2.93c0,.21-.08.41-.22.56-.14.14-.35.23-.56.23l-3.93-.04-.18,3.1c-.01.22-.12.43-.29.56-.14.11-.31.17-.49.17Z"/>
      </g>
      <g>
        <path class="cls-1" d="m99.91,64.2c-.22,0-.44-.1-.59-.26l-2.82-3.19-3.39,3.03c-.14.13-.33.2-.52.2-.02,0-.05,0-.07,0-.22-.02-.41-.13-.55-.3l-2.73-3.58-3.83,2.98c-.14.11-.31.16-.48.16-.05,0-.11,0-.16-.02-.23-.05-.42-.19-.53-.4l-2.09-3.92-4.53,1.57c-.08.03-.17.04-.25.04-.15,0-.3-.04-.43-.13-.2-.13-.33-.36-.35-.6-.39-5.38.3-10.62,2.06-15.56.83-2.35,1.91-4.63,3.21-6.78.12-.2.32-.34.56-.37.04,0,.08,0,.11,0,.19,0,.38.07.53.2l4.24,3.86,2.79-4.06c.12-.17.3-.29.51-.33.04,0,.09-.01.13-.01.16,0,.32.05.46.15l4.27,3.07,2.57-3.52c.13-.18.33-.29.55-.32.03,0,.05,0,.08,0,.19,0,.38.07.52.2l3.97,3.57,2.65-2.22c.14-.12.32-.18.5-.18.23,0,.45.1.6.28.13.16.2.36.18.57-.02.21-.12.4-.28.53l-3.17,2.66c-.14.12-.32.18-.5.18-.19,0-.38-.07-.52-.2l-3.83-3.44-2.52,3.45c-.15.2-.38.32-.63.32-.16,0-.32-.05-.45-.15l-4.25-3.06-2.84,4.14c-.13.19-.33.31-.55.33-.03,0-.06,0-.09,0-.19,0-.38-.07-.52-.2l-4.19-3.82-.24.43c-.92,1.68-1.71,3.45-2.35,5.24-1.51,4.26-2.2,8.76-2.05,13.38l.02.53,4.19-1.45c.08-.03.17-.04.25-.04.29,0,.55.16.69.41l1.97,3.69,3.72-2.89c.14-.11.31-.16.48-.16.03,0,.07,0,.1,0,.21.03.39.14.52.3l2.7,3.53,3.34-2.99c.14-.13.33-.2.52-.2.02,0,.03,0,.05,0,.21.01.4.11.54.26l2.88,3.26,3.6-2.49c.13-.09.28-.14.44-.14.26,0,.5.13.64.34.24.35.16.84-.2,1.09l-4.17,2.89c-.13.09-.28.14-.44.14Z"/>
        <path class="cls-1" d="m91.48,52.45s-.04,0-.06,0c-.22-.02-.42-.13-.56-.3l-1.91-2.46-3.23,2.25c-.13.09-.29.14-.45.14-.05,0-.09,0-.14-.01-.2-.04-.39-.16-.5-.33l-1.65-2.43c-.24-.36-.15-.84.21-1.08.13-.09.28-.14.44-.14.26,0,.5.13.65.34l1.21,1.77,3.19-2.23c.13-.09.29-.14.45-.14.24,0,.47.11.62.3l1.83,2.36,3.01-2.89c.15-.14.34-.22.54-.22.21,0,.41.09.56.24.3.31.29.81-.02,1.1l-3.64,3.49c-.15.14-.34.22-.54.22Z"/>
      </g>
      <path class="cls-1" d="m72.27,61.16c-.38,0-.7-.27-.77-.65-.28-1.61-.65-3.22-1.09-4.79-.31-1.09-.66-2.19-1.05-3.27l-.06-.17-.17-.06c-2.98-1.11-5.88-2.48-8.62-4.08-2.68-1.55-5.24-3.34-7.63-5.31-.16-.13-.26-.32-.28-.53-.02-.21.04-.41.18-.57.15-.18.37-.28.6-.28.18,0,.35.06.5.18,2.32,1.92,4.82,3.66,7.42,5.17,2.52,1.47,5.19,2.74,7.92,3.79l.33.13.16-.31c.92-1.79,1.68-3.67,2.26-5.59.59-1.97,1.01-4.01,1.23-6.06.04-.4.38-.7.77-.7.03,0,.06,0,.08,0,.43.05.74.43.69.86-.23,2.14-.66,4.28-1.28,6.34-.66,2.18-1.54,4.31-2.61,6.33l-.08.15.06.16c.4,1.12.77,2.26,1.09,3.4.46,1.62.84,3.29,1.12,4.95.04.21-.01.41-.13.58s-.3.28-.5.32c-.05,0-.09.01-.14.01Z"/>
    </g>
  </g>
</svg>