<?xml version="1.0" encoding="UTF-8"?>
<svg id="Capa_2" data-name="Capa 2" xmlns="http://www.w3.org/2000/svg" viewBox="0 0 275.1 187.79">
  <defs>
    <style>
      .cls-1 {
        stroke-width: 0px;
      }
    </style>
  </defs>
  <g id="adornos">
    <g id="blob">
      <path class="cls-1" d="m274.74,96.14c-2.28,13.84-11.36,13.26-20.46,32.11-11.4,23.61-1.82,31.91-13.9,39.59-13.37,8.5-26.68-.66-59.28,7.31-23.8,5.82-25.99,13.61-41.76,12.54-15.63-1.06-27.56-10.72-41.77-14.52-14.7-4.06-34.81-1.84-46.89-9.63-12.13-7.8-20.28-18.69-28.31-29.83C14.63,123.09,2.46,108.67.26,97.33c-2.19-11.09,9.93-17.97,15.08-27.41,5.3-9.63,7.75-21.97,19.84-30.75,12.13-8.83,34.47-10.27,51.91-16.59C103.9,16.39,118.7,1,138.72.05c20.01-.95,36.69,11.05,53.49,13.61,17.43,2.75,38.23,1.31,50.36,9.07,12.09,7.81,15.6,20.39,20.9,32.84,5.15,11.87,13.46,27.22,11.26,40.56Z"/>
    </g>
  </g>
</svg>