<?xml version="1.0" encoding="UTF-8"?>
<svg id="Capa_2" data-name="Capa 2" xmlns="http://www.w3.org/2000/svg" viewBox="0 0 44.4 43.29">
  <defs>
    <style>
      .cls-1 {
        fill: #a7fe2f;
        stroke-width: 0px;
      }
    </style>
  </defs>
  <g id="adornos">
    <path class="cls-1" d="m15.8,19.29c-.18-.57-.35-1.13-.54-1.7s-.35-1.11-.5-1.65c-.15-.52-.28-1-.41-1.44h-.04c-.17.8-.37,1.59-.63,2.39-.28.89-.55,1.81-.85,2.74-.24.94-.54,1.81-.81,2.59h4.7c-.11-.39-.26-.85-.43-1.33-.17-.5-.33-1.04-.5-1.59Zm15.87-.54c-1.02-.06-1.98.48-2.46,1.41-.22.43-.35.87-.41,1.33h3.9c.48,0,.83,0,1.05-.02.15-.02.3-.06.43-.15v-.18c0-.24-.04-.46-.11-.68-.33-1.04-1.31-1.74-2.4-1.7ZM36.53,0H7.86C3.51,0,0,3.51,0,7.86v27.56c0,4.35,3.51,7.86,7.86,7.86h28.67c4.35,0,7.86-3.51,7.86-7.86V7.86c0-4.35-3.51-7.86-7.86-7.86Zm-13.02,30.54h-3.87c-.13.02-.26-.08-.3-.2l-1.52-4.44h-6.88l-1.41,4.37c-.04.17-.18.28-.35.26h-3.48c-.2,0-.26-.11-.2-.33l5.96-17.08c.06-.18.11-.35.18-.57.07-.39.11-.8.11-1.2-.02-.09.06-.18.15-.2h4.79c.13,0,.22.06.24.15l6.75,18.96c.06.2,0,.3-.18.3Zm14.52-7.38c-.04.35-.06.61-.08.78-.02.13-.13.24-.26.24-.11,0-.31.02-.61.04-.29.04-.65.05-1.07.05s-.87-.07-1.35-.07h-5.86c.07.57.26,1.15.57,1.65.33.5.8.89,1.35,1.11.74.31,1.56.48,2.37.46.65-.02,1.29-.07,1.92-.2.58-.07,1.13-.22,1.65-.43.09-.07.15-.04.15.15v2.83c0,.07-.02.15-.04.22-.04.06-.07.09-.13.13-.59.26-1.2.44-1.85.55-.87.17-1.74.24-2.63.22-1.41,0-2.59-.22-3.55-.65-.91-.39-1.7-1-2.33-1.76-.59-.72-1.02-1.54-1.28-2.42-.26-.87-.39-1.78-.39-2.7,0-1,.15-1.98.46-2.94.3-.92.76-1.78,1.39-2.53.61-.74,1.37-1.33,2.24-1.76.87-.43,1.91-.57,3.09-.57.98-.02,1.96.17,2.87.57.76.33,1.42.83,1.94,1.48.48.63.87,1.33,1.11,2.11.24.74.35,1.5.35,2.26,0,.44-.02.83-.04,1.18Z"/>
  </g>
</svg>