<?xml version="1.0" encoding="UTF-8"?>
<svg id="Capa_2" data-name="Capa 2" xmlns="http://www.w3.org/2000/svg" viewBox="0 0 30.86 44.4">
  <defs>
    <style>
      .cls-1 {
        fill: #a7fe2f;
        stroke-width: 0px;
      }
    </style>
  </defs>
  <g id="adornos">
    <path class="cls-1" d="m22.56,16.61h-8.49V0h8.49c4.58,0,8.31,3.73,8.31,8.31s-3.73,8.31-8.31,8.31Zm-5.77-2.72h5.77c3.08,0,5.58-2.51,5.58-5.58s-2.51-5.58-5.58-5.58h-5.77s0,11.17,0,11.17Zm0,2.72h-8.49C3.73,16.61,0,12.89,0,8.31S3.73,0,8.31,0h8.49v16.61h0ZM8.31,2.72c-3.08,0-5.58,2.51-5.58,5.58s2.5,5.59,5.58,5.59h5.77V2.72s-5.77,0-5.77,0Zm8.49,27.78h-8.49C3.73,30.5,0,26.78,0,22.2s3.73-8.31,8.31-8.31h8.49v16.61h0Zm-8.49-13.89c-3.08,0-5.58,2.51-5.58,5.58s2.51,5.58,5.58,5.58h5.77v-11.17h-5.77Zm.04,27.78c-4.6,0-8.35-3.73-8.35-8.31s3.73-8.31,8.31-8.31h8.49v8.22c0,4.63-3.79,8.4-8.44,8.4Zm-.04-13.89c-3.08,0-5.58,2.5-5.58,5.58,0,3.08,2.53,5.58,5.63,5.58s5.72-2.55,5.72-5.68v-5.49h-5.77Zm14.25,0h-.18c-4.58,0-8.31-3.73-8.31-8.31s3.73-8.31,8.31-8.31h.18c4.58,0,8.31,3.73,8.31,8.31s-3.73,8.31-8.31,8.31Zm-.18-13.89c-3.08,0-5.58,2.51-5.58,5.58s2.51,5.58,5.58,5.58h.18c3.08,0,5.58-2.51,5.58-5.58s-2.51-5.58-5.58-5.58c0,0-.18,0-.18,0Z"/>
  </g>
</svg>