<?xml version="1.0" encoding="UTF-8"?>
<svg id="Capa_2" data-name="Capa 2" xmlns="http://www.w3.org/2000/svg" viewBox="0 0 44.4 43.29">
  <defs>
    <style>
      .cls-1 {
        fill: #a7fe2f;
        stroke-width: 0px;
      }
    </style>
  </defs>
  <g id="adornos">
    <path class="cls-1" d="m19.48,19.29c-.18-.57-.35-1.13-.54-1.7s-.35-1.11-.5-1.65c-.15-.52-.28-1-.41-1.44h-.04c-.17.8-.37,1.59-.63,2.39-.28.89-.55,1.81-.85,2.74-.26.94-.54,1.81-.81,2.59h4.7c-.11-.39-.26-.85-.43-1.33-.17-.5-.33-1.03-.5-1.59ZM36.53,0H7.86C3.51,0,0,3.51,0,7.86v27.56c0,4.35,3.51,7.86,7.86,7.86h28.67c4.35,0,7.86-3.51,7.86-7.86V7.86c0-4.35-3.51-7.86-7.86-7.86Zm-9.34,30.58h-3.87c-.13.02-.26-.07-.29-.2l-1.52-4.4h-6.88l-1.41,4.35c-.04.17-.18.28-.35.26h-3.48c-.2,0-.26-.11-.2-.33l5.96-17.15c.06-.18.11-.39.18-.61.07-.39.11-.8.11-1.2-.02-.09.06-.18.15-.2h4.79c.15,0,.22.06.24.15l6.75,19.05c.06.2,0,.3-.18.3Zm6.29-.28c0,.2-.07.3-.24.3h-3.63c-.18,0-.28-.11-.28-.3v-14.24c0-.18.08-.26.24-.26h3.66c.17,0,.24.09.24.26v14.24Zm-.39-16.7c-.43.44-1.06.68-1.69.65-.61.02-1.2-.22-1.65-.65-.43-.46-.65-1.07-.63-1.7-.02-.63.22-1.22.66-1.65.45-.43,1.04-.65,1.65-.65.72,0,1.27.22,1.68.65.41.44.63,1.04.61,1.65.02.63-.2,1.24-.65,1.7Z"/>
  </g>
</svg>