<?xml version="1.0" encoding="UTF-8"?>
<svg id="Capa_2" data-name="Capa 2" xmlns="http://www.w3.org/2000/svg" viewBox="0 0 33.76 45.02">
  <defs>
    <style>
      .cls-1 {
        fill: #a7fe2f;
      }
    </style>
  </defs>
  <g id="logo__nobody__green">
    <path class="cls-1" d="m33.76,39.39V12.66L21.1,0H5.63C2.52,0,0,2.52,0,5.63v33.76c0,3.11,2.52,5.63,5.63,5.63h22.51c3.11,0,5.63-2.52,5.63-5.63m-12.66-30.95c0,2.33,1.89,4.22,4.22,4.22h5.63v26.73c0,1.55-1.26,2.81-2.81,2.81H5.63c-1.55,0-2.81-1.26-2.81-2.81V5.63c0-1.55,1.26-2.81,2.81-2.81h15.47v5.63Z"/>
    <path class="cls-1" d="m7.32,39.63c-.55-.22-.99-.64-1.23-1.18-.55-1.09-.37-2.18.23-3.1.56-.86,1.48-1.6,2.52-2.21,1.32-.75,2.72-1.36,4.17-1.81,1.12-2.03,2.12-4.12,2.99-6.27-.52-1.17-.92-2.39-1.21-3.64-.24-1.13-.33-2.24-.13-3.2.21-1,.77-1.89,1.83-2.32.54-.22,1.13-.34,1.69-.22.58.12,1.07.5,1.34,1.03.25.46.34,1,.36,1.51.02.53-.03,1.11-.13,1.73-.24,1.43-.76,3.19-1.46,5.05.78,1.66,1.7,3.25,2.76,4.74,1.25-.1,2.51-.05,3.75.14,1.02.19,2.07.55,2.7,1.31.34.41.54.9.56,1.46.02.54-.13,1.07-.39,1.58-.22.47-.57.88-1,1.17-.43.28-.93.41-1.43.39-.93-.04-1.84-.55-2.63-1.17-.95-.79-1.81-1.69-2.56-2.67-1.9.22-3.78.6-5.62,1.14-.84,1.49-1.8,2.91-2.87,4.25-.82.98-1.71,1.85-2.61,2.21-.51.23-1.1.26-1.63.08m3.88-5.35c-.47.22-.9.44-1.29.67-.92.55-1.52,1.08-1.82,1.54-.26.41-.27.7-.11,1.02.03.06.05.1.07.12l.1-.03c.39-.16,1-.66,1.79-1.61.45-.55.87-1.12,1.27-1.71m4.61-3.74c.94-.22,1.89-.4,2.84-.54-.51-.78-.99-1.59-1.43-2.41-.44,1-.91,1.98-1.41,2.95h0Zm6.88,1.27c.42.46.83.84,1.22,1.15.68.53,1.15.71,1.4.72.07.01.14,0,.2-.04.12-.09.21-.21.26-.35.1-.17.16-.36.17-.56,0-.07-.03-.13-.07-.18-.15-.17-.56-.43-1.46-.59-.57-.09-1.14-.14-1.72-.15h0Zm-5.6-9.86c.23-.76.42-1.54.56-2.33.09-.53.12-.97.11-1.31,0-.19-.03-.38-.09-.56-.14.02-.28.05-.41.11-.24.1-.44.3-.55.8-.11.54-.08,1.32.13,2.31.07.31.15.64.25.97h0Z"/>
  </g>
</svg>