<?xml version="1.0" encoding="UTF-8"?>
<svg id="Capa_2" data-name="Capa 2" xmlns="http://www.w3.org/2000/svg" viewBox="0 0 44.4 43.28">
  <defs>
    <style>
      .cls-1 {
        fill: #a7fe2f;
        stroke-width: 0px;
      }
    </style>
  </defs>
  <g id="adornos">
    <path class="cls-1" d="m18.22,15.02c-.68-.28-1.42-.39-2.18-.37-.48,0-.91,0-1.26.02-.37-.02-.63,0-.76.02v6.22c.26.02.5.04.72.04h.98c.72,0,1.44-.11,2.13-.33.59-.17,1.11-.52,1.52-.98.39-.46.57-1.09.57-1.91.02-.57-.13-1.15-.43-1.65-.31-.48-.76-.85-1.29-1.05ZM36.53,0H7.86C3.51,0,0,3.51,0,7.86v27.56c0,4.35,3.51,7.86,7.86,7.86h28.67c4.35,0,7.86-3.51,7.86-7.86V7.86c0-4.35-3.51-7.86-7.86-7.86Zm-13.67,21.55c-.74,1.04-1.77,1.81-2.98,2.26-1.26.46-2.65.63-4.16.63-.44,0-.74,0-.92-.02s-.44-.02-.8-.02v5.94c.02.13-.07.24-.2.26h-3.59c-.15,0-.22-.08-.22-.24V11.32c0-.13.06-.2.18-.2.31,0,.61,0,1.04-.02.44-.02.91-.02,1.41-.04s1.04-.02,1.61-.04c.57-.02,1.13-.02,1.68-.02,1.52,0,2.77.18,3.81.57.92.31,1.78.83,2.48,1.52.59.59,1.05,1.31,1.35,2.11.28.78.42,1.57.42,2.4,0,1.59-.37,2.9-1.11,3.94Zm13.12,7.2c-.52.74-1.24,1.31-2.07,1.65-.91.39-2.02.59-3.35.59-.85,0-1.68-.07-2.51-.24-.65-.11-1.29-.31-1.89-.59-.13-.07-.22-.2-.21-.35v-3.22c0-.05.02-.13.08-.17.05-.04.11-.02.17.02.72.43,1.48.72,2.29.91.7.18,1.44.28,2.18.28.7,0,1.2-.09,1.54-.26.3-.13.5-.44.5-.78,0-.26-.15-.5-.44-.74-.3-.24-.9-.52-1.81-.87-.94-.33-1.81-.78-2.63-1.33-.57-.41-1.05-.94-1.41-1.57-.29-.59-.44-1.24-.42-1.89,0-.8.22-1.55.63-2.24.46-.74,1.15-1.33,1.94-1.7.87-.44,1.96-.65,3.27-.65.76,0,1.54.06,2.29.17.55.07,1.09.22,1.59.43.07.02.15.09.18.17.02.07.04.15.04.22v3.02c0,.07-.04.15-.09.18-.17.04-.26.04-.33,0-.55-.3-1.15-.5-1.78-.63-.68-.15-1.37-.24-2.07-.24-.37-.02-.76.04-1.11.13-.24.06-.44.18-.57.37-.09.15-.15.33-.15.5s.07.33.19.48c.17.2.39.37.63.5.42.22.87.43,1.31.61,1,.33,1.96.8,2.85,1.35.61.39,1.11.91,1.46,1.54.3.59.44,1.24.43,1.9.02.87-.24,1.74-.72,2.46Z"/>
  </g>
</svg>