<?xml version="1.0" encoding="UTF-8"?>
<svg id="Capa_2" data-name="Capa 2" xmlns="http://www.w3.org/2000/svg" viewBox="0 0 44.38 43.29">
  <defs>
    <style>
      .cls-1 {
        fill: #a7fe2f;
        stroke-width: 0px;
      }
    </style>
  </defs>
  <g id="adornos">
    <g>
      <path class="cls-1" d="m36.38,0H8C3.58,0,0,3.58,0,8v27.29c0,4.42,3.58,8,8,8h28.38c4.42,0,8-3.58,8-8V8c0-4.42-3.58-8-8-8Zm-11.88,17.57c0,.09,0,.19,0,.28,0,.13-.01.26-.02.38,0,.09,0,.17-.02.26-.01.14-.03.28-.05.42-.01.07-.02.14-.03.22-.04.21-.09.42-.15.62-.65,2.19-2.16,3.52-4.3,4.18-1.56.48-3.17.5-4.78.45-.19,0-.38,0-.61,0v.36c0,1.8,0,3.6,0,5.4,0,.38-.05.43-.43.43,0,0,0,0,0,0-1.03,0-2.06,0-3.09,0h0c-.45,0-.47-.01-.47-.47V12.86c0-.49,0-.98,0-1.47,0-.2.07-.29.29-.29,2-.03,4.01-.09,6.01-.1.33,0,.67.01.99.04.11,0,.21.03.32.04.22.03.45.06.67.1.12.02.25.05.37.08.2.05.4.1.6.15.13.04.26.08.38.12.1.03.19.06.29.09.07.03.13.06.19.09.1.04.21.07.31.12.13.06.24.13.36.19,0,0,0,0,.01,0,1.86,1,3.08,2.93,3.15,5.06,0,.07,0,.14,0,.21,0,.02,0,.03,0,.05,0,.07,0,.15,0,.22Zm11.59,1.57h0c0,.36-.04.4-.4.39-.18,0-.36,0-.54.02-.1,0-.21,0-.31.01-.2.02-.4.05-.59.08-.08.01-.16.02-.24.03-.2.04-.4.09-.6.15-.07.02-.15.03-.22.05-.27.08-.53.18-.8.29-.01,0-.03.01-.04.02-.12.05-.24.11-.35.17-.12.06-.23.13-.32.21-.27.23-.41.53-.4.99.04,2.43.03,4.86.02,7.29,0,.42,0,.84,0,1.27,0,0,0,0,0,0,0,.47-.01.48-.48.48-1.09,0-2.18,0-3.26,0-.38,0-.41-.04-.41-.41v-.08c0-2.86.01-5.73,0-8.59-.01-1.82-.08-3.64-.13-5.46,0-.08.01-.13.04-.18,0-.01.02-.02.03-.03.03-.03.08-.04.15-.05.01,0,.01,0,.02,0,1.04,0,2.08,0,3.12,0,.02,0,.03,0,.05,0,.03,0,.05,0,.08.01.04,0,.07.02.11.04.02.01.04.02.05.03.03.02.05.05.08.09.01.01.02.03.03.04.03.05.05.11.06.17.09.5.17,1,.25,1.5l.06.08c.05-.08.09-.17.15-.24.08-.08.16-.16.24-.23.07-.07.14-.14.22-.2.1-.08.19-.16.29-.24.06-.05.12-.11.19-.15.09-.07.19-.13.28-.19.07-.05.15-.1.22-.15.09-.05.18-.1.28-.15.08-.05.17-.1.25-.14.09-.04.18-.08.27-.12.09-.04.19-.08.28-.12.09-.03.19-.06.28-.09.1-.03.2-.07.3-.09.09-.02.19-.04.29-.06.11-.02.21-.05.33-.06.1-.01.2-.02.3-.03.11-.01.22-.03.33-.03,0,0,0,0,.01,0,0,0,.01,0,.02,0,0,0,0,0,0,0,.34,0,.4.04.4.41h0c0,1.09,0,2.18,0,3.26Z"/>
      <path class="cls-1" d="m14.6,14.62c.34,0,.69,0,1.03,0,.91,0,1.83-.05,2.72.22,1.89.57,2.76,2.62,1.83,4.38-.36.68-.96,1.09-1.67,1.34-1.22.44-2.48.38-3.74.34-.07,0-.2-.13-.2-.2,0-1.99,0-3.98,0-5.98,0,0,0-.02.01-.03,0-.03.01-.06.02-.08Z"/>
    </g>
  </g>
</svg>