<?xml version="1.0" encoding="UTF-8"?>
<svg id="Capa_2" data-name="Capa 2" xmlns="http://www.w3.org/2000/svg" viewBox="0 0 42.55 42.55">
  <defs>
    <style>
      .cls-1 {
        fill: #a7fe2f;
        stroke-width: 0px;
      }
    </style>
  </defs>
  <g id="adornos">
    <path class="cls-1" d="m33.8,0H8.75C3.92,0,0,3.92,0,8.75v25.04c0,4.83,3.92,8.75,8.75,8.75h25.04c4.83,0,8.75-3.92,8.75-8.75V8.75c0-4.83-3.92-8.75-8.75-8.75Zm3.39,13.09c-1.96,6.89-8.57,10.38-10.87,11.6-7.47,3.94-11.85,1.91-17.08,6.56-2.36,2.1-3.68,4.49-4.41,6.12-.07-2.34.15-6.57,2.69-10.63.7-1.13,1.91-2.76,4.34-4.7,8.78-7.02,16.46-4.39,22.1-10.7,1-1.12,2.4-3.04,3.33-6.16.42,1.79.82,4.69-.09,7.91Z"/>
  </g>
</svg>