<svg width="40" height="40" viewBox="0 0 40 40" fill="none" xmlns="http://www.w3.org/2000/svg">
<g id="User">
<path id="Vector" d="M36.0828 34.3751C35.9731 34.5652 35.8152 34.723 35.6252 34.8327C35.4351 34.9424 35.2195 35.0002 35 35.0001H5C4.78069 34.9999 4.5653 34.942 4.37545 34.8322C4.1856 34.7223 4.02799 34.5645 3.91843 34.3745C3.80887 34.1846 3.75123 33.9691 3.75128 33.7498C3.75134 33.5305 3.80909 33.315 3.91875 33.1251C6.29844 29.011 9.96562 26.061 14.2453 24.6626C12.1284 23.4024 10.4837 21.4821 9.56373 19.1967C8.64379 16.9112 8.49951 14.387 9.15303 12.0116C9.80656 9.63621 11.2218 7.54103 13.1813 6.0478C15.1408 4.55456 17.5364 3.74585 20 3.74585C22.4636 3.74585 24.8592 4.55456 26.8187 6.0478C28.7783 7.54103 30.1934 9.63621 30.847 12.0116C31.5005 14.387 31.3562 16.9112 30.4363 19.1967C29.5163 21.4821 27.8716 23.4024 25.7547 24.6626C30.0344 26.061 33.7016 29.011 36.0813 33.1251C36.1912 33.315 36.2492 33.5305 36.2495 33.7499C36.2498 33.9693 36.1923 34.1849 36.0828 34.3751Z" fill="#090F14"/>
</g>
</svg>
