<?xml version="1.0" encoding="UTF-8"?>
<svg id="Capa_2" data-name="Capa 2" xmlns="http://www.w3.org/2000/svg" viewBox="0 0 44.11 43.88">
  <defs>
    <style>
      .cls-1 {
        fill: #a7fe2f;
        stroke-width: 0px;
      }
    </style>
  </defs>
  <g id="adornos">
    <path class="cls-1" d="m42.54,4.64L33.47.27c-1.05-.51-2.31-.29-3.13.53l-17.38,15.86-7.57-5.75c-.7-.53-1.69-.49-2.34.1l-2.43,2.21c-.75.68-.81,1.84-.12,2.6.04.04.08.08.12.12l6.57,5.99L.6,27.93c-.75.68-.8,1.85-.12,2.6.04.04.08.08.12.12l2.43,2.21c.65.6,1.64.64,2.34.1l7.57-5.75,17.38,15.86c.82.83,2.08,1.04,3.13.53l9.08-4.37c.95-.46,1.56-1.43,1.56-2.48V7.12c0-1.06-.61-2.03-1.56-2.48Zm-9.46,27.31l-13.19-10.01,13.19-10.01v20.02Z"/>
  </g>
</svg>